<?xml version="1.0" standalone="yes"?>
<svg xmlns="http://www.w3.org/2000/svg" width="458" height="458">
<path style="fill:#fcfdfc; stroke:none;" d="M0 0L0 458L458 458L458 0L0 0z"/>
<path style="fill:#97c84e; stroke:none;" d="M213 28L213 29L218 29L213 28z"/>
<path style="fill:#59a426; stroke:none;" d="M218 28L218 29L228 29L218 28z"/>
<path style="fill:#97c84e; stroke:none;" d="M228 28L228 29L238 29L228 28M208 29L209 30L208 29z"/>
<path style="fill:#59a426; stroke:none;" d="M209 29L209 30L212 30L209 29z"/>
<path style="fill:#1d4814; stroke:none;" d="M203 36C209.721 33.3131 227.06 25.7062 228 38L224 38L224 37L227 37L226 33L224 35L221 33L221 36L220 36C216.883 34.7368 214.829 35.1763 213 38L209 35L202 42L205 46C200.439 53.0043 203.766 67.2322 202.715 76C199.553 102.352 196.04 128.656 192.845 155C191.739 164.121 191.209 175.574 187.471 184C182.797 194.534 174.318 202.045 172.326 214C169.84 228.913 172 245.88 172 261L172 356C172 379.68 166.333 407.92 172.519 431C175.078 440.55 185.455 441.762 194 441.985C213.461 442.493 232.55 442.87 252 442.039C259.253 441.73 270.094 442.792 275.348 436.66C281.44 429.549 280 416.644 280 408L280 340L280 256C280 242.352 281.647 227.511 279.7 214C277.897 201.49 268.207 194.3 264.468 183C259.041 166.593 258.358 147.1 256.285 130C253.565 107.551 249.693 83.5949 249.394 61C249.296 53.6086 254.291 44.2101 251.593 37.0154C247.204 25.3158 207.415 24.3517 203 36z"/>
<path style="fill:#59a426; stroke:none;" d="M238 29L238 30L241 30L238 29z"/>
<path style="fill:#97c84e; stroke:none;" d="M241.667 29.3333L242.333 29.6667L241.667 29.3333M204 32L207 31L204 32z"/>
<path style="fill:#59a426; stroke:none;" d="M207 30L208 31L207 30M243.667 30.3333L244.333 30.6667L243.667 30.3333z"/>
<path style="fill:#97c84e; stroke:none;" d="M245.667 30.3333L246.333 30.6667L245.667 30.3333z"/>
<path style="fill:#59a426; stroke:none;" d="M205 31L206 32L205 31M202 35L201 44L202 44L209 35L213 38L221 36L221 33L222 33L224 35L225 33L226 33L224 37L224 38L228 38C227.54 23.9925 209.386 34.8614 202 35z"/>
<path style="fill:#ac4841; stroke:none;" d="M247 31L248 32L247 31z"/>
<path style="fill:#97c84e; stroke:none;" d="M248 31L249 32L248 31M203 32L202 35L203 35L203 32z"/>
<path style="fill:#59a426; stroke:none;" d="M249 32L251 34L249 32z"/>
<path style="fill:#97c84e; stroke:none;" d="M250 32L251 33L250 32z"/>
<path style="fill:#59a426; stroke:none;" d="M203 33L204 34L203 33M234 33L233 38C236.054 37.3456 235.936 35.9934 236 33L234 33z"/>
<path style="fill:#97c84e; stroke:none;" d="M251 34L252 35L251 34z"/>
<path style="fill:#59a426; stroke:none;" d="M241 35L241 40L242 40L241 35M251.333 35.6667L251.667 36.3333L251.333 35.6667z"/>
<path style="fill:#97c84e; stroke:none;" d="M201 36L201 42L202 42L201 36z"/>
<path style="fill:#1d4814; stroke:none;" d="M205.333 36.6667L205.667 37.3333L205.333 36.6667z"/>
<path style="fill:#59a426; stroke:none;" d="M215 39L218 37L215 39M219 37L220 38L219 37z"/>
<path style="fill:#97c84e; stroke:none;" d="M241.333 37.6667L241.667 38.3333L241.333 37.6667z"/>
<path style="fill:#59a426; stroke:none;" d="M247 37L248 41L247 37z"/>
<path style="fill:#97c84e; stroke:none;" d="M252 37L253 38L252 37z"/>
<path style="fill:#59a426; stroke:none;" d="M209 40L212 39L209 40M252.333 38.6667L252.667 39.3333L252.333 38.6667z"/>
<path style="fill:#97c84e; stroke:none;" d="M253 40L250 45L250 46C252.756 44.4868 254.001 43.1369 253 40z"/>
<path style="fill:#59a426; stroke:none;" d="M215 42L216 46L210 48L210 49C217.324 47.6404 237.165 50.4099 239 42L215 42z"/>
<path style="fill:#97c84e; stroke:none;" d="M200 42L201 43L200 42z"/>
<path style="fill:#59a426; stroke:none;" d="M252 43L253 44L252 43z"/>
<path style="fill:#97c84e; stroke:none;" d="M202 44L203 45L202 44z"/>
<path style="fill:#59a426; stroke:none;" d="M251 44L252 45L251 44z"/>
<path style="fill:#97c84e; stroke:none;" d="M203.333 45.6667L203.667 46.3333L203.333 45.6667z"/>
<path style="fill:#59a426; stroke:none;" d="M204 46L205 47L204 46M249 46L251 49L249 46M203 47L204 48L203 47z"/>
<path style="fill:#97c84e; stroke:none;" d="M250 47L251 48L250 47M202 48L203 49L202 48z"/>
<path style="fill:#59a426; stroke:none;" d="M202 49L203 50L202 49z"/>
<path style="fill:#97c84e; stroke:none;" d="M251 49L252 50L251 49M201 50L201 53L202 53L201 50z"/>
<path style="fill:#59a426; stroke:none;" d="M251 50L252 51L251 50z"/>
<path style="fill:#97c84e; stroke:none;" d="M252 51L252 54L253 54L252 51z"/>
<path style="fill:#59a426; stroke:none;" d="M212 54L211 62L235 62L235 63L231 63L231 64L239 65L245 100L231 100L231 101L233 100L233 101L232 105L233 105L234 102L237 105L236 100L239 100L245 106L241 102L241 101L247 102L243.644 72L241.262 62.0278L225 60L225 59C231.108 59 238.394 60.7781 239 53C230.811 51.4798 219.653 50.3173 212 54M202 53L203 54L202 53z"/>
<path style="fill:#97c84e; stroke:none;" d="M217 53L217 54L221 54L221 56L215 56L215 59L225 58L225 53L217 53M202 54L203 55L202 54z"/>
<path style="fill:#59a426; stroke:none;" d="M251 54L252 55L251 54z"/>
<path style="fill:#97c84e; stroke:none;" d="M203 55L204 56L203 55z"/>
<path style="fill:#1d4814; stroke:none;" d="M213 55L214 56L213 55z"/>
<path style="fill:#59a426; stroke:none;" d="M250 55L251 56L250 55M249 57L249 63L250 63L249 57z"/>
<path style="fill:#97c84e; stroke:none;" d="M203 60L203 64L204 64L203 60M209 102L211 105L217 101L218 101L219 101L219 103L227 100L227 103L224 102L229 110L226 111L210 109L206.83 133L201 181L218 184C213.805 187.222 209.83 189.219 212 195C189.504 195.201 189 217.825 189 235L192 234L193 237L197 235C193.101 242.127 184.442 244.373 185 254C179.942 256.646 179.09 261.735 178 267L179 267C185.817 252.68 193.977 248.042 208 242C203.516 247.714 196.105 249.58 191.015 254.76C179.977 265.995 179 282.235 179 297L180 297C181.21 281.665 181.724 266.199 194.015 255.185C198.195 251.439 203.332 249.902 208 247L208 252L205 255C201.524 254.789 200.113 255.665 199 259C195.451 259.72 195.44 261.626 196 265L192 263C190.649 266.927 190.546 268.519 193 272L188 270L191 275L190 276L187 274L189 280L185 280L185 286L192 288L190 285L190 284L197.083 273.083L208 265L207 267L208 267L210 266L211 266L211 267C201.56 271.492 197.526 278.907 196.286 289C195.919 291.994 194.963 297.746 198.318 299.397C202.564 301.486 210.347 300 215 300C228.384 300 241.657 299 255 299L255 298L252 298C252 288.347 251.469 280.665 245 273C252.539 278.822 253.994 286.975 254 296L255 296C255 287.464 255.293 278.835 248.671 272.34C243.829 267.591 237.227 266.689 233 261L243 261L251 266C253.165 262.013 254.533 259.473 251 256L247 263L245 261L245 260L249 254L246 253L243 260L242 260L243 257L239 254L243 255C240.808 251.056 238.321 251.264 236 255C234.383 250.137 235.62 246.664 241 246L235 240L260 247.8L273 261C267.628 244.524 255.909 237.106 240 232L240 231L243 230L238 226C240.283 219.151 238.764 205.054 237 198C236.592 196.366 237.804 193.448 237 192C235.473 189.252 233.237 191.053 234 188L219 185L219 184L234 181L234 180L221 178L221 177L234 177L238 146L237 146L237 149L236 149L236 142C238.523 140.66 241.133 136.599 237 136L237 128L239 128L237 126L240 122L237 123L236 112L230 109L231 100L245 100L239 65L231 64L231 63L235 63L226 62L212 61L211 73L209 102z"/>
<path style="fill:#59a426; stroke:none;" d="M210 63L209 86L210 86L210 63M203.333 64.6667L203.667 65.3333L203.333 64.6667z"/>
<path style="fill:#97c84e; stroke:none;" d="M250 64L250 68L251 68L250 64z"/>
<path style="fill:#ac4841; stroke:none;" d="M203 66L204 67L203 66z"/>
<path style="fill:#59a426; stroke:none;" d="M250 68L250 72L251 72L250 68z"/>
<path style="fill:#97c84e; stroke:none;" d="M202 70L202 74L203 74L202 70M251 73L251 76L252 76L251 73z"/>
<path style="fill:#59a426; stroke:none;" d="M202.333 74.6667L202.667 75.3333L202.333 74.6667z"/>
<path style="fill:#ac4841; stroke:none;" d="M226 74L222 78L223 85L231 86L233 78L228 74L226 74M202.333 76.6667L202.667 77.3333L202.333 76.6667z"/>
<path style="fill:#59a426; stroke:none;" d="M251 76L251 80L252 80L251 76M233.333 78.6667L233.667 79.3333L233.333 78.6667z"/>
<path style="fill:#97c84e; stroke:none;" d="M201 79L201 82L202 82L201 79z"/>
<path style="fill:#59a426; stroke:none;" d="M201 82L201 85L202 85L201 82z"/>
<path style="fill:#fcfdfc; stroke:none;" d="M222 82L223 83L222 82z"/>
<path style="fill:#97c84e; stroke:none;" d="M223 82L224 83L223 82M252 82L252 87L253 87L252 82z"/>
<path style="fill:#59a426; stroke:none;" d="M231 84L230 87L231 84M223 85L224 86L223 85M229 85L230 86L229 85M208 86L208 96L209 96L208 86z"/>
<path style="fill:#97c84e; stroke:none;" d="M200 87L200 90L201 90L200 87z"/>
<path style="fill:#59a426; stroke:none;" d="M252 87L252 92L253 92L252 87M200 90L200 93L201 93L200 90z"/>
<path style="fill:#ac4841; stroke:none;" d="M200 93L201 94L200 93z"/>
<path style="fill:#97c84e; stroke:none;" d="M253 93L253 98L254 98L253 93z"/>
<path style="fill:#fcfdfc; stroke:none;" d="M224 96L230 95L224 96z"/>
<path style="fill:#97c84e; stroke:none;" d="M199 95L199 99L200 99L199 95z"/>
<path style="fill:#fcfdfc; stroke:none;" d="M213 96C215.029 98.3209 216.613 97.6635 219 96L220 99L221 99L220 95L213 96z"/>
<path style="fill:#59a426; stroke:none;" d="M207 97L207 100L208 100L207 97z"/>
<path style="fill:#fcfdfc; stroke:none;" d="M224 97L230 99L224 97z"/>
<path style="fill:#59a426; stroke:none;" d="M253 98L253 102L254 102L253 98M199 99L199 103L200 103L199 99M208 100C205.191 119.866 202 141.962 201.998 162C201.998 167.476 197.479 178.048 202 182L205.83 146L210 109L229 110C226.156 106.761 223.863 104.708 227 101L227 100L219 101L218 101L217 101L211 105L210 100L208 100M211.667 100.333L212.333 100.667L211.667 100.333z"/>
<path style="fill:#1d4814; stroke:none;" d="M232.333 100.667L232.667 101.333L232.333 100.667z"/>
<path style="fill:#97c84e; stroke:none;" d="M234 100L235 101L234 100z"/>
<path style="fill:#fcfdfc; stroke:none;" d="M225.667 102.333L226.333 102.667L225.667 102.333z"/>
<path style="fill:#97c84e; stroke:none;" d="M236 102L236 104L238 104L236 102z"/>
<path style="fill:#59a426; stroke:none;" d="M237 102L238 103L237 102z"/>
<path style="fill:#97c84e; stroke:none;" d="M242 103L243 104L242 103z"/>
<path style="fill:#59a426; stroke:none;" d="M247 103L246 105L248 105L247 103z"/>
<path style="fill:#97c84e; stroke:none;" d="M198 104L198 108L199 108L198 104M218 104L219 105L218 104z"/>
<path style="fill:#59a426; stroke:none;" d="M226.333 104.667L226.667 105.333L226.333 104.667z"/>
<path style="fill:#97c84e; stroke:none;" d="M254 104L254 107L255 107L254 104z"/>
<path style="fill:#fcfdfc; stroke:none;" d="M227 108L230 107L227 108z"/>
<path style="fill:#59a426; stroke:none;" d="M231 106L232 107L231 106z"/>
<path style="fill:#1d4814; stroke:none;" d="M224 107L225 108L224 107z"/>
<path style="fill:#59a426; stroke:none;" d="M254 107L254 110L255 110L254 107M198 108L199 109L198 108M230 108L230 109L236 112L237 123L240 122L237 126L239 127L239 128L237 128L237 136C241.655 136 238.102 140.64 236 142L236 149L237 149L237 146L238 146L234 177L221 177L221 178L234 180L234 181L219 184L219 185L234 188L238 226L243 230L240 231L240 232L265 245L271 245L270 227L267 228C267.401 224.114 267.476 221.199 264 219C266.73 205.203 256.802 186.895 243 184L243 183L255 182L252.382 129L248.187 112.6L230 108z"/>
<path style="fill:#ac4841; stroke:none;" d="M198 109L199 110L198 109z"/>
<path style="fill:#59a426; stroke:none;" d="M218 110L218 111L224 111L218 110z"/>
<path style="fill:#fcfdfc; stroke:none;" d="M230 110L231 111L230 110z"/>
<path style="fill:#97c84e; stroke:none;" d="M197 111L197 115L198 115L197 111z"/>
<path style="fill:#fcfdfc; stroke:none;" d="M225 111L226 112L225 111M228 111L222 116L230 115L228 111z"/>
<path style="fill:#97c84e; stroke:none;" d="M255 113L255 117L256 117L255 113z"/>
<path style="fill:#fcfdfc; stroke:none;" d="M231 114L232 115L231 114z"/>
<path style="fill:#59a426; stroke:none;" d="M197 115L197 118L198 118L197 115M255 117L255 122L256 122L255 117z"/>
<path style="fill:#fcfdfc; stroke:none;" d="M226.667 118.333L227.333 118.667L226.667 118.333z"/>
<path style="fill:#97c84e; stroke:none;" d="M196 120L196 124L197 124L196 120z"/>
<path style="fill:#fcfdfc; stroke:none;" d="M227 124L230 124L229 122L227 124z"/>
<path style="fill:#97c84e; stroke:none;" d="M256 122L256 126L257 126L256 122z"/>
<path style="fill:#59a426; stroke:none;" d="M196 124L196 128L197 128L196 124z"/>
<path style="fill:#fcfdfc; stroke:none;" d="M225 127L225 128L231 128L225 127z"/>
<path style="fill:#59a426; stroke:none;" d="M256 126L256 132L257 132L256 126z"/>
<path style="fill:#97c84e; stroke:none;" d="M195.333 130.667L195.667 131.333L195.333 130.667z"/>
<path style="fill:#fcfdfc; stroke:none;" d="M225 131L225 132L230 132L225 131z"/>
<path style="fill:#97c84e; stroke:none;" d="M257 131L257 135L258 135L257 131z"/>
<path style="fill:#59a426; stroke:none;" d="M195 132L195 136L196 136L195 132z"/>
<path style="fill:#fcfdfc; stroke:none;" d="M226 135L229 137L229 136L226 135z"/>
<path style="fill:#59a426; stroke:none;" d="M257 135L257 139L258 139L257 135z"/>
<path style="fill:#fcfdfc; stroke:none;" d="M222 136L223 137L222 136z"/>
<path style="fill:#59a426; stroke:none;" d="M236 136L237 137L236 136z"/>
<path style="fill:#97c84e; stroke:none;" d="M194 137L194 140L195 140L194 137M258 139L258 143L259 143L258 139z"/>
<path style="fill:#59a426; stroke:none;" d="M194 140L194 144L195 144L194 140z"/>
<path style="fill:#fcfdfc; stroke:none;" d="M226 140L227 141L226 140z"/>
<path style="fill:#59a426; stroke:none;" d="M258 143L258 148L259 148L258 143z"/>
<path style="fill:#97c84e; stroke:none;" d="M193 144L193 147L194 147L193 144z"/>
<path style="fill:#fcfdfc; stroke:none;" d="M227 144L227 145L231 145L227 144z"/>
<path style="fill:#59a426; stroke:none;" d="M193 147L193 150L194 150L193 147z"/>
<path style="fill:#fcfdfc; stroke:none;" d="M222 150L231 149C227.911 147.704 224.308 147.359 222 150z"/>
<path style="fill:#97c84e; stroke:none;" d="M259 148L259 152L260 152L259 148M192 152L192 155L193 155L192 152z"/>
<path style="fill:#fcfdfc; stroke:none;" d="M222 155L232 154C228.586 152.4 224.547 151.896 222 155z"/>
<path style="fill:#59a426; stroke:none;" d="M259 152L259 155L260 155L259 152M192 155L192 158L193 158L192 155z"/>
<path style="fill:#97c84e; stroke:none;" d="M260 155L260 159L261 159L260 155M191 158L191 161L192 161L191 158z"/>
<path style="fill:#59a426; stroke:none;" d="M260.333 159.667L260.667 160.333L260.333 159.667M191 161L191 164L192 164L191 161z"/>
<path style="fill:#97c84e; stroke:none;" d="M261 162L261 165L262 165L261 162M190 164L190 168L191 168L190 164z"/>
<path style="fill:#59a426; stroke:none;" d="M261 165L261 168L262 168L261 165M190.333 168.667L190.667 169.333L190.333 168.667z"/>
<path style="fill:#97c84e; stroke:none;" d="M262 168L262 172L263 172L262 168M189 171L189 175L190 175L189 171z"/>
<path style="fill:#59a426; stroke:none;" d="M262.333 172.667L262.667 173.333L262.333 172.667M189 175L189 178L190 178L189 175z"/>
<path style="fill:#97c84e; stroke:none;" d="M263 175L263 178L264 178L263 175M188.333 178.667L188.667 179.333L188.333 178.667z"/>
<path style="fill:#59a426; stroke:none;" d="M263.333 178.667L263.667 179.333L263.333 178.667M188.333 180.667L188.667 181.333L188.333 180.667z"/>
<path style="fill:#97c84e; stroke:none;" d="M264.333 180.667L264.667 181.333L264.333 180.667M187.333 182.667L187.667 183.333L187.333 182.667z"/>
<path style="fill:#59a426; stroke:none;" d="M202 182L202 183L205 184C198.177 188.13 192.462 193.446 189 201C187.662 203.92 184.373 208.439 189 209L183 214L183 215L183 216C190.809 224.86 184.563 236.786 186 247L187 247L197 235L193 237L192 234L189 235C189 218.294 190.15 195.511 212 195C210.258 189.259 214.691 187.792 218 184L202 182M264 182L265 183L264 182z"/>
<path style="fill:#ac4841; stroke:none;" d="M264 183L265 184L264 183z"/>
<path style="fill:#59a426; stroke:none;" d="M187 184L188 185L187 184z"/>
<path style="fill:#97c84e; stroke:none;" d="M265.333 184.667L265.667 185.333L265.333 184.667M186 185L187 186L186 185z"/>
<path style="fill:#59a426; stroke:none;" d="M186 186L187 187L186 186z"/>
<path style="fill:#ac4841; stroke:none;" d="M265 186L266 187L265 186z"/>
<path style="fill:#97c84e; stroke:none;" d="M185 187L186 188L185 187M266 187L267 188L266 187M184 188L185 189L184 188M267 188L268 189L267 188z"/>
<path style="fill:#59a426; stroke:none;" d="M184 189L185 190L184 189M231 189L232 190L231 189M267 189L268 190L267 189z"/>
<path style="fill:#97c84e; stroke:none;" d="M183 190L184 191L183 190M268 190L269 191L268 190M182 191L183 192L182 191M269 191L270 192L269 191M181 192L182 193L181 192z"/>
<path style="fill:#59a426; stroke:none;" d="M181 193L182 194L181 193M270 193L271 194L270 193z"/>
<path style="fill:#97c84e; stroke:none;" d="M180 194L181 195L180 194M271 194L272 195L271 194M179 195L178 198L179 198L179 195M272 195L273 196L272 195z"/>
<path style="fill:#59a426; stroke:none;" d="M179 196L180 197L179 196z"/>
<path style="fill:#97c84e; stroke:none;" d="M273 196L274 197L273 196z"/>
<path style="fill:#59a426; stroke:none;" d="M273 197L274 198L273 197z"/>
<path style="fill:#97c84e; stroke:none;" d="M274 198L275 199L274 198M177 199L178 200L177 199z"/>
<path style="fill:#ac4841; stroke:none;" d="M274 199L275 200L274 199z"/>
<path style="fill:#59a426; stroke:none;" d="M275 200L276 201L275 200z"/>
<path style="fill:#97c84e; stroke:none;" d="M176 201L177 202L176 201M276 202L277 203L276 202M175 203L176 204L175 203M277 204L278 205L277 204M174 205L175 206L174 205z"/>
<path style="fill:#59a426; stroke:none;" d="M277 205L278 206L277 205M174 206L175 207L174 206z"/>
<path style="fill:#97c84e; stroke:none;" d="M173.333 207.667L173.667 208.333L173.333 207.667M278 207L279 208L278 207z"/>
<path style="fill:#59a426; stroke:none;" d="M278 208L279 209L278 208M173 209L174 210L173 209z"/>
<path style="fill:#97c84e; stroke:none;" d="M172.333 210.667L172.667 211.333L172.333 210.667M279 210L280 211L279 210z"/>
<path style="fill:#59a426; stroke:none;" d="M279 211L280 212L279 211M172 212L173 213L172 212z"/>
<path style="fill:#ac4841; stroke:none;" d="M279 212L280 213L279 212z"/>
<path style="fill:#1d4814; stroke:none;" d="M186.667 213.333L187.333 213.667L186.667 213.333z"/>
<path style="fill:#97c84e; stroke:none;" d="M280.333 214.667L280.667 215.333L280.333 214.667M171 216L171 224L172 224L171 216z"/>
<path style="fill:#59a426; stroke:none;" d="M280 216L280 261L281 261C281 248.258 284.91 227.701 280 216M171.333 224.667L171.667 225.333L171.333 224.667z"/>
<path style="fill:#97c84e; stroke:none;" d="M171 226L171 230L172 230L171 226z"/>
<path style="fill:#59a426; stroke:none;" d="M171 230L171 276L172 276C172 262.997 176.01 241.939 171 230M227 234L227 235L232 236L231 232L227 234z"/>
<path style="fill:#fcfdfc; stroke:none;" d="M185 253C201.752 243.328 213.126 238 233 238C214.962 230.431 193.744 233.478 185 253M238 235L238 236L244 238L250 238L238 235z"/>
<path style="fill:#59a426; stroke:none;" d="M235 240L241 246L238 245C235.219 248.356 233.66 250.889 236 255C238.836 252.116 240.259 251.96 243 255L239 254L243 257L242 260L243 260L246 253L249 254L245 260L245 261L247 263L251 256C253.65 259.962 252.626 261.797 251 266L243 261L233 261L253 280L254 280L255 276L253 272L258 280L259 280L265 273L261 269L261 263L253 268L257 256L257 255L254 254L254 253C270.393 260.645 271.869 282.207 272 298L273 298C278.266 278.848 266.89 259.729 254 247L269 257C262.756 243.62 247.665 242.351 235 240z"/>
<path style="fill:#fcfdfc; stroke:none;" d="M254 240L256 242L256 240L254 240z"/>
<path style="fill:#1d4814; stroke:none;" d="M270 240L271 241L270 240z"/>
<path style="fill:#59a426; stroke:none;" d="M184 241L185 242L184 241M207 242C194.978 247.18 184.08 251.128 180 265L181 265L186 254L187 254L187 259L207 242z"/>
<path style="fill:#1d4814; stroke:none;" d="M263 242L264 243L263 242z"/>
<path style="fill:#59a426; stroke:none;" d="M272 242L273 243L272 242M184.333 244.667L184.667 245.333L184.333 244.667M267 244L268 245L267 244M265 245L268 249L265 245M185 247L180 258L181 258L185 247M207 247L186 263L186 275L190 276L191 275L188 270L193 272L192 263L196 265C195.762 261.944 195.778 259.794 199 259L205 255L208 252L207 247M231 248L229 251L231 248M233 248L234 249L233 248M268 249L270 252L268 249M208.667 250.333L209.333 250.667L208.667 250.333z"/>
<path style="fill:#fcfdfc; stroke:none;" d="M212 252L215 260L212 252z"/>
<path style="fill:#59a426; stroke:none;" d="M229.333 252.667L229.667 253.333L229.333 252.667z"/>
<path style="fill:#1d4814; stroke:none;" d="M253 252L254 253L253 252z"/>
<path style="fill:#59a426; stroke:none;" d="M270.333 252.667L270.667 253.333L270.333 252.667z"/>
<path style="fill:#fcfdfc; stroke:none;" d="M184 253L185 254L184 253M207 253L211 262L209 253L207 253z"/>
<path style="fill:#1d4814; stroke:none;" d="M186 254C181.549 263.533 178.03 271.22 178 282L179 282L186 254z"/>
<path style="fill:#fcfdfc; stroke:none;" d="M217 254L217 260L218 260L217 254z"/>
<path style="fill:#59a426; stroke:none;" d="M271 254L272 260L273 260L271 254z"/>
<path style="fill:#fcfdfc; stroke:none;" d="M183 255L184 256L183 255z"/>
<path style="fill:#59a426; stroke:none;" d="M205 255L206 260L207 260L205 255z"/>
<path style="fill:#fcfdfc; stroke:none;" d="M203 256L204 257L203 256M200 257L201 258L200 257z"/>
<path style="fill:#59a426; stroke:none;" d="M238 257L240 259L240 257L238 257M269 257L270 261L271 261L269 257M179 258L179 261L180 261L179 258z"/>
<path style="fill:#fcfdfc; stroke:none;" d="M201 259L202 262L207 263L204 258L201 259z"/>
<path style="fill:#59a426; stroke:none;" d="M199 259L198 260L201 262L199 259M251.667 259.333L252.333 259.667L251.667 259.333M186 260L187 261L186 260z"/>
<path style="fill:#fcfdfc; stroke:none;" d="M196.333 260.667L196.667 261.333L196.333 260.667z"/>
<path style="fill:#59a426; stroke:none;" d="M228 260L229 261L228 260M232 260L233 261L232 260M273 260C270.746 263.519 271.653 267.486 275 270L273 260M220 261L219 265L220 261z"/>
<path style="fill:#97c84e; stroke:none;" d="M280 261L280 329L281 329L281 282L280 261z"/>
<path style="fill:#59a426; stroke:none;" d="M178 262L178 265L179 265L178 262M185 262L186 263L185 262M231 262L231 265L232 265L233 265L231 262M184.333 263.667L184.667 264.333L184.333 263.667z"/>
<path style="fill:#fcfdfc; stroke:none;" d="M197 263L202 267L202 266L197 263z"/>
<path style="fill:#59a426; stroke:none;" d="M200 263L200 265L202 265L202 263L200 263z"/>
<path style="fill:#fcfdfc; stroke:none;" d="M203 263L204 264L203 263z"/>
<path style="fill:#59a426; stroke:none;" d="M225 263L226 264L225 263z"/>
<path style="fill:#97c84e; stroke:none;" d="M236 263L237 264L236 263z"/>
<path style="fill:#1d4814; stroke:none;" d="M186 264L180 298C193.132 296.179 183.351 289.195 186 282L184 279L186 279L188 264L186 264z"/>
<path style="fill:#fcfdfc; stroke:none;" d="M193 264L194 265L193 264z"/>
<path style="fill:#59a426; stroke:none;" d="M208.667 264.333L209.333 264.667L208.667 264.333z"/>
<path style="fill:#97c84e; stroke:none;" d="M255 272C258.793 270.171 260.608 268.281 260 264C256.207 265.829 254.392 267.719 255 272z"/>
<path style="fill:#59a426; stroke:none;" d="M183.333 265.667L183.667 266.333L183.333 265.667M185.333 265.667L185.667 266.333L185.333 265.667z"/>
<path style="fill:#fcfdfc; stroke:none;" d="M194 265L195 268L191 267L195 272L194 269L198 270L194 265z"/>
<path style="fill:#59a426; stroke:none;" d="M196 265L197 266L196 265M190 284L190 285L192 288L187 287L187 297L192 299L192 300L198 301C192.249 287.429 199.831 274.63 211 267L211 266L207 267L208 265C196.788 267.961 197.737 278.511 190 284M177 266L175 290L176 290L180 266L177 266M192 266L193 267L192 266z"/>
<path style="fill:#fcfdfc; stroke:none;" d="M198 288L199 288C199.755 279.421 204.602 272.495 213 270L213 271C198.437 275.954 206.164 290.005 198 298L198 290L197 290L197 299L241 299L241 298L235 297L234 293L236 290L232 289L235 298C228.228 296.415 225.943 294.559 219 297C220.473 290.453 219.75 287.924 215 283C222.567 282.973 222.4 279.38 228 276L229 283L235 283L235 282L230 281L230 280L233 280C232.504 276.966 232.126 275.929 229 276L232 274L233 267C217.014 264.98 198.895 268.463 198 288z"/>
<path style="fill:#59a426; stroke:none;" d="M259 266L260 267L259 266M182.333 267.667L182.667 268.333L182.333 267.667M184 267L184 270L185 270L184 267z"/>
<path style="fill:#97c84e; stroke:none;" d="M205 267L206 268L205 267z"/>
<path style="fill:#fcfdfc; stroke:none;" d="M234.667 268.333L235.333 268.667L234.667 268.333z"/>
<path style="fill:#59a426; stroke:none;" d="M256.333 268.667L256.667 269.333L256.333 268.667M181 269L180 276L181 276L181 269z"/>
<path style="fill:#97c84e; stroke:none;" d="M219 272L229 273L230 269L219 272z"/>
<path style="fill:#1d4814; stroke:none;" d="M259 269L259 271L261 269L259 269z"/>
<path style="fill:#59a426; stroke:none;" d="M260 270L261 271L260 270z"/>
<path style="fill:#97c84e; stroke:none;" d="M257 276L264 271C260.134 270.86 258.204 272.304 257 276z"/>
<path style="fill:#59a426; stroke:none;" d="M183 271L183 274L184 274L183 271z"/>
<path style="fill:#fcfdfc; stroke:none;" d="M189 271L190 272L189 271z"/>
<path style="fill:#97c84e; stroke:none;" d="M216 271L216 273L218 273L218 271L216 271z"/>
<path style="fill:#59a426; stroke:none;" d="M243 271L245 273L243 271z"/>
<path style="fill:#1d4814; stroke:none;" d="M252 271L253 272L252 271z"/>
<path style="fill:#fcfdfc; stroke:none;" d="M190 272L191 273L190 272z"/>
<path style="fill:#59a426; stroke:none;" d="M193 272L194 273L193 272z"/>
<path style="fill:#fcfdfc; stroke:none;" d="M195 272L196 273L195 272z"/>
<path style="fill:#97c84e; stroke:none;" d="M214 272L215 273L214 272z"/>
<path style="fill:#fcfdfc; stroke:none;" d="M191 273L194 275L191 273z"/>
<path style="fill:#59a426; stroke:none;" d="M245 273L255 298L255 299L241 299L241 300L257 299L256 284L255 284L255 296L254 296C253.999 287.508 253.531 277.361 245 273M182 274L182 280L183 280L182 274z"/>
<path style="fill:#97c84e; stroke:none;" d="M211 274L212 275L211 274z"/>
<path style="fill:#fcfdfc; stroke:none;" d="M233.667 274.333L234.333 274.667L233.667 274.333z"/>
<path style="fill:#59a426; stroke:none;" d="M191 275L191 277L193 277L191 275M263 275L263 276L265 277C259.186 279.536 259.954 282.493 260 288L263 287L261 283L267 282L267 283L264 283L264 286L264 287C269.749 283.809 265.786 281.157 261 281L261 280L267 278L263 275z"/>
<path style="fill:#97c84e; stroke:none;" d="M171 276L171 284L172 284L171 276z"/>
<path style="fill:#59a426; stroke:none;" d="M179 276L179 282L180 282L179 276M185 276L186 277L185 276z"/>
<path style="fill:#fcfdfc; stroke:none;" d="M187 276L188 277L187 276z"/>
<path style="fill:#97c84e; stroke:none;" d="M208 276L209 277L208 276M225 278L228 278L226 276L225 278z"/>
<path style="fill:#59a426; stroke:none;" d="M261 276L262 277L261 276z"/>
<path style="fill:#97c84e; stroke:none;" d="M259 281L260 281L265 277C261.562 276.084 260.006 277.808 259 281z"/>
<path style="fill:#59a426; stroke:none;" d="M186 277L184 281L189 280L186 277z"/>
<path style="fill:#fcfdfc; stroke:none;" d="M188 277L188 278L193 280L188 277z"/>
<path style="fill:#ac4841; stroke:none;" d="M226 277L224 283L217 284L217 286C220.612 289.038 220.515 291.504 220 296L233 296L236 283C230.608 282.824 229.332 280.789 226 277z"/>
<path style="fill:#1d4814; stroke:none;" d="M187 279L188 280L187 279z"/>
<path style="fill:#97c84e; stroke:none;" d="M224 279L225 280L224 279z"/>
<path style="fill:#59a426; stroke:none;" d="M181 280L181 291L182 291L181 280z"/>
<path style="fill:#97c84e; stroke:none;" d="M228.333 280.667L228.667 281.333L228.333 280.667z"/>
<path style="fill:#59a426; stroke:none;" d="M254 280L254 283L255 283L254 280M185 281L186 282L185 281z"/>
<path style="fill:#fcfdfc; stroke:none;" d="M187 281L187 286L191 287L192 283L187 281z"/>
<path style="fill:#97c84e; stroke:none;" d="M223.333 281.667L223.667 282.333L223.333 281.667z"/>
<path style="fill:#59a426; stroke:none;" d="M178 282L176 301L182 300L178 282M186 282L184 286L185 286L186 282z"/>
<path style="fill:#97c84e; stroke:none;" d="M261 283L262 286L266 286C265.058 283.712 264.437 283.342 267 283L261 283M204 283L205 284L204 283M215 283L215 284L219 284L215 283z"/>
<path style="fill:#59a426; stroke:none;" d="M248.333 283.667L248.667 284.333L248.333 283.667M171 284L171 288L172 288L171 284M236 284L237 285L236 284M185.667 286.333L186.333 286.667L185.667 286.333z"/>
<path style="fill:#97c84e; stroke:none;" d="M218 286L219 287L218 286M261 286L262 287L261 286M219 287L220 288L219 287M171 288L171 294L172 294L171 288M220 288L221 289L220 288z"/>
<path style="fill:#fcfdfc; stroke:none;" d="M236 288L237 289L236 288z"/>
<path style="fill:#97c84e; stroke:none;" d="M231 289L232 290L231 289M220.333 291.667L220.667 292.333L220.333 291.667M232 291L232 294L233 294L232 291z"/>
<path style="fill:#59a426; stroke:none;" d="M180 292L180 297L181 297L180 292z"/>
<path style="fill:#fcfdfc; stroke:none;" d="M237 292L238 293L237 292z"/>
<path style="fill:#97c84e; stroke:none;" d="M225 293L225 294L235 298L234 294L233 294L225 293z"/>
<path style="fill:#59a426; stroke:none;" d="M171.333 294.667L171.667 295.333L171.333 294.667z"/>
<path style="fill:#97c84e; stroke:none;" d="M207 295C210.586 297.147 214.545 297.783 217 294L207 295M219 294C219.614 296.851 220.303 296.854 223 296L223 295L219 294M223.667 294.333L224.333 294.667L223.667 294.333z"/>
<path style="fill:#ac4841; stroke:none;" d="M237 295L237 296L245 296L237 295z"/>
<path style="fill:#59a426; stroke:none;" d="M245 295L246 296L245 295z"/>
<path style="fill:#97c84e; stroke:none;" d="M171 296L172 297L171 296M185 297L185 298L194 299L185 297z"/>
<path style="fill:#59a426; stroke:none;" d="M259 299L271 299C267.284 297.211 261.658 295.149 259 299M171 297L171 373L172 373L172 321L171 297M183 297L183 298L191 299L191 298L183 297z"/>
<path style="fill:#97c84e; stroke:none;" d="M181 298L181 299L184 299L181 298z"/>
<path style="fill:#1d4814; stroke:none;" d="M180 300L180 301L196 301L180 300z"/>
<path style="fill:#59a426; stroke:none;" d="M272.667 299.333L273.333 299.667L272.667 299.333z"/>
<path style="fill:#97c84e; stroke:none;" d="M176 301L176 302L215 302C206.177 298.298 185.443 299.402 176 301z"/>
<path style="fill:#ac4841; stroke:none;" d="M198 300L198 301L201 301L198 300z"/>
<path style="fill:#59a426; stroke:none;" d="M201 300L201 301L204 301L201 300z"/>
<path style="fill:#ac4841; stroke:none;" d="M204 300L204 301L214 301L204 300z"/>
<path style="fill:#1d4814; stroke:none;" d="M214.667 300.333L215.333 300.667L214.667 300.333z"/>
<path style="fill:#ac4841; stroke:none;" d="M216 300L217 301L216 300z"/>
<path style="fill:#59a426; stroke:none;" d="M188 302L188 303L236 302C223.595 296.795 201.546 302 188 302z"/>
<path style="fill:#ac4841; stroke:none;" d="M236 301L236 302L241 303L236 301z"/>
<path style="fill:#59a426; stroke:none;" d="M239 301L239 302L243 302L239 301z"/>
<path style="fill:#ac4841; stroke:none;" d="M244 301L244 302L248 302L244 301z"/>
<path style="fill:#59a426; stroke:none;" d="M255 301L256 302L255 301M258 301L258 302L261 302L258 301z"/>
<path style="fill:#ac4841; stroke:none;" d="M261 301L261 302L267 302L261 301z"/>
<path style="fill:#59a426; stroke:none;" d="M268 301L269 302L268 301M272 301L272 302L276 302L272 301M176 302L175 315L176 315L178 302L176 302z"/>
<path style="fill:#ac4841; stroke:none;" d="M179 302L179 303L182 303L179 302M183 302L184 303L183 302M187 302L188 303L187 302M217 302L217 303L228 303L217 302z"/>
<path style="fill:#59a426; stroke:none;" d="M181.333 305.667L181.667 306.333L181.333 305.667z"/>
<path style="fill:#97c84e; stroke:none;" d="M182 305L182 306L185 306L182 305z"/>
<path style="fill:#ac4841; stroke:none;" d="M185 305L186 306L185 305z"/>
<path style="fill:#59a426; stroke:none;" d="M187 305L188 306L187 305z"/>
<path style="fill:#97c84e; stroke:none;" d="M187 306L187 307L192 307L187 306z"/>
<path style="fill:#ac4841; stroke:none;" d="M204 305L205 306L204 305z"/>
<path style="fill:#97c84e; stroke:none;" d="M205 305L204 306L204 310L204 311L208 311L205 306L208 307L205 305z"/>
<path style="fill:#59a426; stroke:none;" d="M207 305L208 306L207 305z"/>
<path style="fill:#ac4841; stroke:none;" d="M269.333 305.667L269.667 306.333L269.333 305.667z"/>
<path style="fill:#fcfdfc; stroke:none;" d="M182 306L182 321L185 321L185 320L184 314L188 314C188 317.511 187.013 321.146 191 322L191 306C187.597 306.729 188.013 308.806 188 312L184 312L185 306L182 306z"/>
<path style="fill:#59a426; stroke:none;" d="M185 306L186 307L185 306z"/>
<path style="fill:#fcfdfc; stroke:none;" d="M205 306L208 308L205 306z"/>
<path style="fill:#ac4841; stroke:none;" d="M208 306L209 307L208 306z"/>
<path style="fill:#59a426; stroke:none;" d="M238 306L239 307L238 306z"/>
<path style="fill:#97c84e; stroke:none;" d="M239 306L238 322L244 322L243 317L250 322L249 310L241 313L243 307L239 306z"/>
<path style="fill:#59a426; stroke:none;" d="M242 306L243 307L242 306z"/>
<path style="fill:#97c84e; stroke:none;" d="M182 307L182 320L183 320L182 307M184 307L184 312L185 312L184 307z"/>
<path style="fill:#59a426; stroke:none;" d="M187 307L188 308L187 307M191 307L192 308L191 307M208 307L209 308L208 307z"/>
<path style="fill:#fcfdfc; stroke:none;" d="M240.667 307.333L241.333 307.667L240.667 307.333z"/>
<path style="fill:#ac4841; stroke:none;" d="M187 308L187 311L188 311L187 308z"/>
<path style="fill:#97c84e; stroke:none;" d="M190 308L191 322L192 322L190 308z"/>
<path style="fill:#59a426; stroke:none;" d="M204 308L205 309L204 308M207.333 308.667L207.667 309.333L207.333 308.667M239 308L239 319L240 319L239 308M242 308L242 314L243 314L242 308z"/>
<path style="fill:#ac4841; stroke:none;" d="M195 309L196 310L195 309z"/>
<path style="fill:#59a426; stroke:none;" d="M196 309L197 310L196 309z"/>
<path style="fill:#97c84e; stroke:none;" d="M197 309L198 310L197 309z"/>
<path style="fill:#59a426; stroke:none;" d="M198 309L199 310L198 309z"/>
<path style="fill:#ac4841; stroke:none;" d="M199 309L200 310L199 309z"/>
<path style="fill:#59a426; stroke:none;" d="M205 309L206 310L205 309z"/>
<path style="fill:#97c84e; stroke:none;" d="M176 310L176 317L177 317L176 310z"/>
<path style="fill:#59a426; stroke:none;" d="M194 310L193 312L194 310z"/>
<path style="fill:#97c84e; stroke:none;" d="M195 310L195 316L201 316L200 313L196 315L200 311L200 310L195 310z"/>
<path style="fill:#fcfdfc; stroke:none;" d="M196 310L196 311L199 311L196 310z"/>
<path style="fill:#59a426; stroke:none;" d="M200 310L202 312L200 310z"/>
<path style="fill:#ac4841; stroke:none;" d="M203.333 310.667L203.667 311.333L203.333 310.667M208 310L209 311L208 310z"/>
<path style="fill:#59a426; stroke:none;" d="M211 310L212 311L211 310z"/>
<path style="fill:#97c84e; stroke:none;" d="M211 311L211 322L212 322L212 311L216 311L211 311z"/>
<path style="fill:#59a426; stroke:none;" d="M216 310L217 311L216 310z"/>
<path style="fill:#97c84e; stroke:none;" d="M217 310L217 311L222 312L217 310z"/>
<path style="fill:#59a426; stroke:none;" d="M221 310L222 311L221 310M228 310L229 311L228 310z"/>
<path style="fill:#97c84e; stroke:none;" d="M229 310L229 311L235 312L236 315C236.089 310.989 232.465 310.262 229 310z"/>
<path style="fill:#59a426; stroke:none;" d="M245 310L245 313L246 313L245 310M249.333 310.667L249.667 311.333L249.333 310.667M254 310L254 313L257 312L257 311L254 310z"/>
<path style="fill:#97c84e; stroke:none;" d="M255 310L255 311L258 316L259 316C259.54 312.325 258.536 311.073 255 310z"/>
<path style="fill:#ac4841; stroke:none;" d="M262 310L263 311L262 310z"/>
<path style="fill:#59a426; stroke:none;" d="M262 313L263 313L267 311L262 313z"/>
<path style="fill:#97c84e; stroke:none;" d="M263 311L262 322C266.413 321.054 265 315.767 265 312L270 322L268 310L263 311z"/>
<path style="fill:#59a426; stroke:none;" d="M268 310L269 311L268 310M185 311L186 312L185 311z"/>
<path style="fill:#97c84e; stroke:none;" d="M187 311L188 312L187 311z"/>
<path style="fill:#fcfdfc; stroke:none;" d="M194 311C192.227 317.055 195.506 325.554 202 319L195 319L195 318L198 317L198 316L195 316L196 311L194 311M199 311L202 315L199 311M204 311L204 322L209 322L208 311L204 311z"/>
<path style="fill:#59a426; stroke:none;" d="M208 311L208 320L209 320L208 311z"/>
<path style="fill:#fcfdfc; stroke:none;" d="M212 311L212 322L216 322C215.19 317.551 214.688 314.38 219 312L223 322C221.008 313.638 221.548 311.007 212 311z"/>
<path style="fill:#97c84e; stroke:none;" d="M227 311L226 313L227 311z"/>
<path style="fill:#fcfdfc; stroke:none;" d="M234 322L234 321C228.724 319.412 228.185 315.809 230 311C222.911 314.91 227.404 321.501 234 322M233 311L234 312L233 311z"/>
<path style="fill:#ac4841; stroke:none;" d="M235 311L236 312L235 311z"/>
<path style="fill:#fcfdfc; stroke:none;" d="M241.333 311.667L241.667 312.333L241.333 311.667z"/>
<path style="fill:#97c84e; stroke:none;" d="M253 311C250.542 317.137 252.603 322.953 260 321L260 320L254 320L254 318L257 317L257 316L254 316L255 311L253 311z"/>
<path style="fill:#ac4841; stroke:none;" d="M259 311L260 312L259 311M196 312L197 313L196 312z"/>
<path style="fill:#1d4814; stroke:none;" d="M197 312L196 315L199 313L197 312z"/>
<path style="fill:#59a426; stroke:none;" d="M198 312L199 313L198 312z"/>
<path style="fill:#97c84e; stroke:none;" d="M201 312L202 313L201 312M204 312L205 313L204 312z"/>
<path style="fill:#ac4841; stroke:none;" d="M211 312L212 313L211 312z"/>
<path style="fill:#97c84e; stroke:none;" d="M216 312L215 320L216 320L216 312z"/>
<path style="fill:#59a426; stroke:none;" d="M217 312L218 313L217 312z"/>
<path style="fill:#97c84e; stroke:none;" d="M218 312L219 313L218 312z"/>
<path style="fill:#59a426; stroke:none;" d="M222 312L222 320L223 320L222 312M229 312L230 313L229 312z"/>
<path style="fill:#1d4814; stroke:none;" d="M229 316L233 312L229 316z"/>
<path style="fill:#fcfdfc; stroke:none;" d="M234 312L236 315L234 312z"/>
<path style="fill:#1d4814; stroke:none;" d="M255 312L254 313L254 315L255 316L257 316L258 315L258 313L257 312L255 312z"/>
<path style="fill:#ac4841; stroke:none;" d="M257 312L258 313L257 312z"/>
<path style="fill:#59a426; stroke:none;" d="M265.667 312.333L266.333 312.667L265.667 312.333M269 312L269 320L270 320L269 312M192 313L193 314L192 313z"/>
<path style="fill:#97c84e; stroke:none;" d="M202 313L203 314L202 313z"/>
<path style="fill:#59a426; stroke:none;" d="M204 313L204 319L205 319L204 313z"/>
<path style="fill:#ac4841; stroke:none;" d="M216 313L217 314L216 313M225 313L226 314L225 313z"/>
<path style="fill:#97c84e; stroke:none;" d="M228 313L229 318L235 315L228 313z"/>
<path style="fill:#59a426; stroke:none;" d="M233 313L234 314L233 313M244 313L245 314L244 313M251.333 313.667L251.667 314.333L251.333 313.667M258 313L259 314L258 313M260.333 313.667L260.667 314.333L260.333 313.667M267 313L267 320L268 320L267 313z"/>
<path style="fill:#97c84e; stroke:none;" d="M184 314L185 321L181 320L181 321L186 321L184 314z"/>
<path style="fill:#1d4814; stroke:none;" d="M185 314L185 320L187 320L187 314L185 314z"/>
<path style="fill:#97c84e; stroke:none;" d="M187 314L188 315L187 314z"/>
<path style="fill:#ac4841; stroke:none;" d="M191.333 314.667L191.667 315.333L191.333 314.667z"/>
<path style="fill:#97c84e; stroke:none;" d="M192 314L192 318L193 318L192 314z"/>
<path style="fill:#59a426; stroke:none;" d="M198 314L199 315L198 314M202 314L203 315L202 314z"/>
<path style="fill:#97c84e; stroke:none;" d="M219 314L220 322L221 322L219 314M225 314L225 318L226 318L225 314z"/>
<path style="fill:#59a426; stroke:none;" d="M246 314L247 315L246 314M187.333 315.667L187.667 316.333L187.333 315.667z"/>
<path style="fill:#fcfdfc; stroke:none;" d="M199 315L200 316L199 315z"/>
<path style="fill:#59a426; stroke:none;" d="M201 315L202 316L201 315M231 315L232 316L231 315M235 315L236 316L235 315M254 315L255 316L254 315M257.333 315.667L257.667 316.333L257.333 315.667M259 315L260 316L259 315M175 316L175 324L176 324L175 316M191 316L192 317L191 316M233 316L234 317L233 316M247 316L248 317L247 316z"/>
<path style="fill:#ac4841; stroke:none;" d="M187 317L188 318L187 317z"/>
<path style="fill:#1d4814; stroke:none;" d="M191.333 317.667L191.667 318.333L191.333 317.667z"/>
<path style="fill:#97c84e; stroke:none;" d="M196 317L196 320L197 320L196 317z"/>
<path style="fill:#59a426; stroke:none;" d="M197 317L198 318L197 317M231 317L232 318L231 317M244 317L245 318L244 317M251.333 317.667L251.667 318.333L251.333 317.667M255 317L256 318L255 317M187 318L185 322L187 318M192 318L193 319L192 318z"/>
<path style="fill:#ac4841; stroke:none;" d="M196 318L197 319L196 318z"/>
<path style="fill:#97c84e; stroke:none;" d="M201 318L201 321L202 321L201 318z"/>
<path style="fill:#59a426; stroke:none;" d="M202 318L203 319L202 318M225 318L226 319L225 318M229 318L230 319L229 318M242 318L243 319L242 318M248 318L249 319L248 318M254.333 318.667L254.667 319.333L254.333 318.667z"/>
<path style="fill:#ac4841; stroke:none;" d="M191.667 319.333L192.333 319.667L191.667 319.333z"/>
<path style="fill:#97c84e; stroke:none;" d="M193 319L194 320L193 319z"/>
<path style="fill:#ac4841; stroke:none;" d="M197 319L198 320L197 319z"/>
<path style="fill:#59a426; stroke:none;" d="M199 319L200 320L199 319z"/>
<path style="fill:#97c84e; stroke:none;" d="M200 319L201 320L200 319M204 319L205 320L204 319M226 319L229 322L226 319M229 319L230 320L229 319z"/>
<path style="fill:#59a426; stroke:none;" d="M234 319L235 320L234 319z"/>
<path style="fill:#97c84e; stroke:none;" d="M230 320L230 321L237 319L230 320z"/>
<path style="fill:#59a426; stroke:none;" d="M245 319L246 320L245 319M259.667 319.333L260.333 319.667L259.667 319.333z"/>
<path style="fill:#97c84e; stroke:none;" d="M187.333 320.667L187.667 321.333L187.333 320.667z"/>
<path style="fill:#59a426; stroke:none;" d="M193 320L194 321L193 320z"/>
<path style="fill:#97c84e; stroke:none;" d="M198 320L199 321L198 320z"/>
<path style="fill:#59a426; stroke:none;" d="M202.667 320.333L203.333 320.667L202.667 320.333z"/>
<path style="fill:#97c84e; stroke:none;" d="M208 320L209 321L208 320z"/>
<path style="fill:#ac4841; stroke:none;" d="M209 320L210 321L209 320z"/>
<path style="fill:#97c84e; stroke:none;" d="M216.333 320.667L216.667 321.333L216.333 320.667M222 320L224 322L224 320L222 320z"/>
<path style="fill:#ac4841; stroke:none;" d="M226 320L227 321L226 320z"/>
<path style="fill:#59a426; stroke:none;" d="M236 320L237 321L236 320M238 320L239 321L238 320M243 320L244 321L243 320M246.333 320.667L246.667 321.333L246.333 320.667M252 320L253 321L252 320M256.667 320.333L257.333 320.667L256.667 320.333M262 320L263 321L262 320M265.333 320.667L265.667 321.333L265.333 320.667z"/>
<path style="fill:#ac4841; stroke:none;" d="M270 320L271 321L270 320z"/>
<path style="fill:#59a426; stroke:none;" d="M181 321L182 322L181 321M194 321L195 322L194 321z"/>
<path style="fill:#97c84e; stroke:none;" d="M195 321L196 322L195 321M200 321L201 322L200 321M203 321L204 322L203 321z"/>
<path style="fill:#59a426; stroke:none;" d="M209.667 321.333L210.333 321.667L209.667 321.333M219 321L220 322L219 321z"/>
<path style="fill:#ac4841; stroke:none;" d="M227 321L228 322L227 321M235 321L236 322L235 321z"/>
<path style="fill:#fcfdfc; stroke:none;" d="M239 321L240 322L239 321z"/>
<path style="fill:#59a426; stroke:none;" d="M250 321L251 322L250 321M253 321L254 322L253 321z"/>
<path style="fill:#ac4841; stroke:none;" d="M188 322L189 323L188 322z"/>
<path style="fill:#59a426; stroke:none;" d="M189.667 322.333L190.333 322.667L189.667 322.333z"/>
<path style="fill:#ac4841; stroke:none;" d="M191 322L192 323L191 322M195 322L196 323L195 322z"/>
<path style="fill:#59a426; stroke:none;" d="M196 322L196 323L199 323L196 322z"/>
<path style="fill:#ac4841; stroke:none;" d="M199 322L200 323L199 322z"/>
<path style="fill:#59a426; stroke:none;" d="M204 322L204 323L209 323L204 322M211 322L211 323L217 323L211 322M221 322L222 323L221 322z"/>
<path style="fill:#ac4841; stroke:none;" d="M222 322L223 323L222 322M229 322L230 323L229 322z"/>
<path style="fill:#59a426; stroke:none;" d="M230 322L230 323L233 323L230 322M239 322L240 323L239 322z"/>
<path style="fill:#ac4841; stroke:none;" d="M240 322L241 323L240 322M256 322L257 323L256 322z"/>
<path style="fill:#59a426; stroke:none;" d="M176 324L176 326L178 326L176 324z"/>
<path style="fill:#ac4841; stroke:none;" d="M179 325L180 326L179 325M181 325L182 326L181 325M188.667 325.333L189.333 325.667L188.667 325.333z"/>
<path style="fill:#97c84e; stroke:none;" d="M176 326C178.597 329.578 191.57 335.674 193 329L179 328L179 327L216 327C205.488 322.589 187.434 326 176 326z"/>
<path style="fill:#59a426; stroke:none;" d="M203 327L203 328L239 328C231.029 322 212.548 327 203 327z"/>
<path style="fill:#ac4841; stroke:none;" d="M232 326L233 327L232 326M238 326L238 327L251 327L238 326z"/>
<path style="fill:#59a426; stroke:none;" d="M241.667 326.333L242.333 326.667L241.667 326.333M251 326L252 327L251 326z"/>
<path style="fill:#ac4841; stroke:none;" d="M252 326L253 327L252 326z"/>
<path style="fill:#59a426; stroke:none;" d="M253 326L254 327L253 326z"/>
<path style="fill:#ac4841; stroke:none;" d="M254.667 326.333L255.333 326.667L254.667 326.333z"/>
<path style="fill:#59a426; stroke:none;" d="M256 326L256 327L263 327L256 326z"/>
<path style="fill:#ac4841; stroke:none;" d="M263 326L264 327L263 326z"/>
<path style="fill:#59a426; stroke:none;" d="M264 326L264 327L272 327L259 330C263.008 334.581 273.473 330.627 276 326L264 326M176 327L177 328L176 327M179 327L182 329L179 327z"/>
<path style="fill:#1d4814; stroke:none;" d="M181 327L181 328L192 329L181 327z"/>
<path style="fill:#ac4841; stroke:none;" d="M185.667 327.333L186.333 327.667L185.667 327.333z"/>
<path style="fill:#59a426; stroke:none;" d="M187 327L187 328L193 332L185 331L185 332L188 333L188 337L183 338L183 340L188 342L188 347L184 352L188 352L188 369L183 356L182 356L182 360L181 360L181 357L180 357L188 379L184 374L183 374C196.637 400.215 255.25 401.503 269 375L270 375L261 390C271.332 382.374 275.744 367.404 276 355L275 355C272.753 371.671 262.207 388.168 244 389L244 388C246.909 385.223 243.849 382.453 241 381L241 380C249.778 378.6 245.926 369.078 244 363C250.51 359.594 254.195 354.395 253 347L254 347L254 349L255 349L254 339L255 339L255 344L256 344C256 339.693 258.063 330.085 253 329L253 330L255 332L252 331C250.942 343.275 250.999 353.324 240 361L240 362L251 352L252 352C245.389 369.064 216.717 370.694 204.301 359.471C195.464 351.482 196 339.867 196 329L202 329L202 327L187 327z"/>
<path style="fill:#ac4841; stroke:none;" d="M233 327L234 328L233 327M236.667 327.333L237.333 327.667L236.667 327.333z"/>
<path style="fill:#59a426; stroke:none;" d="M255 327L256 328L255 327M177 328L178 329L177 328z"/>
<path style="fill:#1d4814; stroke:none;" d="M194.667 328.333L195.333 328.667L194.667 328.333z"/>
<path style="fill:#ac4841; stroke:none;" d="M202.667 328.333L203.333 328.667L202.667 328.333M206 328L206 329L211 329L206 328z"/>
<path style="fill:#1d4814; stroke:none;" d="M211 328L212 329L211 328z"/>
<path style="fill:#ac4841; stroke:none;" d="M212 328L213 329L212 328z"/>
<path style="fill:#59a426; stroke:none;" d="M178 329L178 335L179 335L179 331L180 331L181 355L182 355C182 347.987 178.597 336.812 183 331L183 330L178 329M184 329L184 330L187 330L184 329M191 329L192 330L191 329z"/>
<path style="fill:#97c84e; stroke:none;" d="M196 329L198 352L200 350L201 354L199 353C207.408 369.738 246.807 373.627 252 352L251 352L240 362L240 361C251.712 355.306 251.553 342.42 252 331L255 332L236 329L236 330L238 331C233.533 331.44 222.027 330.206 221 335L220 335L220 332L206 333L206 334L211 335L211 336L208 338L222 338L222 337L220 337L220 336L224 336L225 336L225 339L226 339L226 335L235 338L229 338L229 339L234 339L234 340L226 343C217.92 336.007 215.422 348.768 218.589 354.677C220.13 357.553 226.142 356.292 229 358C225.768 358.539 224.275 359.898 225 357L215 361L231 364L231 365L213 364L214 361C200.163 354.107 202.869 343.723 200 331L198 332L197 332L198 329L196 329z"/>
<path style="fill:#fcfdfc; stroke:none;" d="M197 332L200 331C201.533 343.036 200.041 356.37 214 361L213 364L231 365L231 364L215 361L225 357L229 358C226.036 355.094 221.204 357.539 219.024 354.628C214.651 348.788 218.07 338.383 226 343L234 340L234 339L227 335L226 335L226 339L208 338L211 336L211 335L206 334L206 333C210.338 331.979 217.025 331.165 220 335L221 335L221 332L238 331C229.447 327.411 217.214 330.706 208 329.83C203.696 329.421 199.659 327.899 197 332z"/>
<path style="fill:#97c84e; stroke:none;" d="M205 329L205 330L235 330L205 329z"/>
<path style="fill:#59a426; stroke:none;" d="M235 329L236 330L235 329M238 329L238 330L252 330L238 329z"/>
<path style="fill:#1d4814; stroke:none;" d="M180 330L181 331L180 330z"/>
<path style="fill:#97c84e; stroke:none;" d="M179 331L181 360L182 360L179 331z"/>
<path style="fill:#1d4814; stroke:none;" d="M181 331C181 340.884 179.193 362.392 188 369L188 352L184 352L188 347L188 342L183 340L183 338L188 337L188 333L181 331z"/>
<path style="fill:#59a426; stroke:none;" d="M272 331L269 363L270 363C271.731 354.61 276.837 338.71 272 331z"/>
<path style="fill:#fcfdfc; stroke:none;" d="M197.333 333.667L197.667 334.333L197.333 333.667z"/>
<path style="fill:#ac4841; stroke:none;" d="M222 333L223 334L222 333M224 333L224 334L228 334L224 333M230 333L230 334L237 334L230 333M240 335L243 333L240 335z"/>
<path style="fill:#59a426; stroke:none;" d="M243.667 333.333L244.333 333.667L243.667 333.333M249 333L249 336L250 336L249 333z"/>
<path style="fill:#fcfdfc; stroke:none;" d="M212 335L212 336L216 336L212 335M218 335L219 336L218 335z"/>
<path style="fill:#59a426; stroke:none;" d="M178 336L178 350L179 350L178 336z"/>
<path style="fill:#fcfdfc; stroke:none;" d="M197.333 336.667L197.667 337.333L197.333 336.667z"/>
<path style="fill:#ac4841; stroke:none;" d="M220 336L220 337L223 338L220 336M224.333 336.667L224.667 337.333L224.333 336.667M227 336L227 337L235 338L227 336M238 336L238 337L243 337L238 336z"/>
<path style="fill:#97c84e; stroke:none;" d="M227 337L228 338L227 337z"/>
<path style="fill:#59a426; stroke:none;" d="M238 337L239 338L238 337M242 337L243 338L242 337M262 340L263 341L265 338L262 340z"/>
<path style="fill:#fcfdfc; stroke:none;" d="M197 339L197 344L198 344L197 339z"/>
<path style="fill:#97c84e; stroke:none;" d="M254 339L254 345L255 345L254 339z"/>
<path style="fill:#59a426; stroke:none;" d="M222 343L223 344L222 343M199 344L200 345L199 344M175 346L176 362L177 362L175 346z"/>
<path style="fill:#97c84e; stroke:none;" d="M185 351L190 353L191 349L187 350L192 348L189 356L193 354L191 357L193 355L194 355C192.208 358.066 190.709 358.29 188 356L187 356L188 362C192.051 360.412 197.022 356.608 192 353C193.404 346.833 187.974 346.521 185 351z"/>
<path style="fill:#fcfdfc; stroke:none;" d="M198 347L198 350L199 350L198 347z"/>
<path style="fill:#59a426; stroke:none;" d="M220 347L221 351L222 351L220 347M247 347L247 350L248 350L249 347L247 347z"/>
<path style="fill:#97c84e; stroke:none;" d="M253 347L253 350L254 350L253 347z"/>
<path style="fill:#59a426; stroke:none;" d="M260 347L258 353L262 353L261 349L265 351L263 352L263 353L266 352L266 351L260 347z"/>
<path style="fill:#fcfdfc; stroke:none;" d="M187 350L191 349L189 352C191.826 352 191.791 350.858 192 348L187 350z"/>
<path style="fill:#59a426; stroke:none;" d="M200 348L201 349L200 348z"/>
<path style="fill:#97c84e; stroke:none;" d="M204.333 348.667L204.667 349.333L204.333 348.667M261 349L265 352L265 351L261 349z"/>
<path style="fill:#fcfdfc; stroke:none;" d="M199 350L200 354L201 354L199 350z"/>
<path style="fill:#97c84e; stroke:none;" d="M252.333 350.667L252.667 351.333L252.333 350.667z"/>
<path style="fill:#59a426; stroke:none;" d="M201 351L202 352L201 351M179 352L179 356L180 356L179 352z"/>
<path style="fill:#97c84e; stroke:none;" d="M206 354L209 352L206 354z"/>
<path style="fill:#59a426; stroke:none;" d="M221.333 353.667L221.667 354.333L221.333 353.667z"/>
<path style="fill:#fcfdfc; stroke:none;" d="M188 356L188 358C191.423 358.579 192.865 358.397 194 355L193 355L191 357L193 354L188 356M201 354L209 362L201 354z"/>
<path style="fill:#59a426; stroke:none;" d="M257 354L254 362L261 367L256 359L264 361L259 354L257 354z"/>
<path style="fill:#97c84e; stroke:none;" d="M208 355L208 356L212 358L208 355M257 356L257 357L263 360L263 359L257 356z"/>
<path style="fill:#fcfdfc; stroke:none;" d="M189 359L190 360L189 359z"/>
<path style="fill:#97c84e; stroke:none;" d="M193 368L197 362L194 371L201 375L205 366L197 359C193.341 360.727 188.178 364.727 193 368M177 360C178.494 378.776 191.164 397.268 211 399L211 398C198.948 395.48 190.384 390.253 185 379C196.474 389.95 209.753 393.073 225 395L225 396L219 396L221 399L212 399L212 400C232.358 400 264.019 400.465 270 375L269 375C254.033 394.641 225.151 397.849 203 389.074C195.539 386.118 190.109 380.256 183 377L177 360z"/>
<path style="fill:#fcfdfc; stroke:none;" d="M191 366L192 366L197 361L191 366z"/>
<path style="fill:#97c84e; stroke:none;" d="M255 360L260 365L255 360z"/>
<path style="fill:#59a426; stroke:none;" d="M178 361L178 364L179 364L178 361z"/>
<path style="fill:#97c84e; stroke:none;" d="M182.333 361.667L182.667 362.333L182.333 361.667z"/>
<path style="fill:#fcfdfc; stroke:none;" d="M210.667 362.333L211.333 362.667L210.667 362.333z"/>
<path style="fill:#59a426; stroke:none;" d="M251 363L255 371L259 368L253 365L255 366L251 363M177 364L177 367L178 367L177 364z"/>
<path style="fill:#97c84e; stroke:none;" d="M183 364L184 365L183 364z"/>
<path style="fill:#fcfdfc; stroke:none;" d="M198 364L195 370L200 364L198 364z"/>
<path style="fill:#97c84e; stroke:none;" d="M252 364L253 365L252 364z"/>
<path style="fill:#59a426; stroke:none;" d="M268 364L269 365L268 364M179.333 365.667L179.667 366.333L179.333 365.667M247 365L246 366L249 376L255 374L247 365z"/>
<path style="fill:#97c84e; stroke:none;" d="M253 365L255 368L253 365z"/>
<path style="fill:#fcfdfc; stroke:none;" d="M197 372L201 370L200 374L201 374L204 367L197 372z"/>
<path style="fill:#97c84e; stroke:none;" d="M248 367L251 370L250 375L254 373L248 367z"/>
<path style="fill:#59a426; stroke:none;" d="M180 368L181 369L180 368z"/>
<path style="fill:#97c84e; stroke:none;" d="M206 368L204 378L209 368L206 368M255 368L258 370L258 369L255 368z"/>
<path style="fill:#59a426; stroke:none;" d="M178.333 369.667L178.667 370.333L178.333 369.667z"/>
<path style="fill:#97c84e; stroke:none;" d="M210 369C205.677 380.548 215.002 382.204 216 370L213 370L210 377L212 369L210 369M243 369L245 377L239 370L242 379C246.912 377.019 245.958 372.613 243 369z"/>
<path style="fill:#59a426; stroke:none;" d="M181 370L182 371L181 370z"/>
<path style="fill:#fcfdfc; stroke:none;" d="M206 370L207 371L206 370M210.333 371.667L210.667 372.333L210.333 371.667z"/>
<path style="fill:#97c84e; stroke:none;" d="M218 371L216 381L219 378L220 378L221 381L222 378L223 378L224 382L224 371L223 371L222 374L221 374L220 371L218 371M232.728 372.086C229.43 374.428 232.385 382.558 236.411 379.762C239.654 377.511 236.476 369.424 232.728 372.086z"/>
<path style="fill:#59a426; stroke:none;" d="M179.333 372.667L179.667 373.333L179.333 372.667M182 372L183 373L182 372z"/>
<path style="fill:#fcfdfc; stroke:none;" d="M205.333 372.667L205.667 373.333L205.333 372.667M219 372L218 374L220 374L219 372z"/>
<path style="fill:#ac4841; stroke:none;" d="M171 373L171 383L172 383L171 373z"/>
<path style="fill:#fcfdfc; stroke:none;" d="M181 373L182 374L181 373z"/>
<path style="fill:#97c84e; stroke:none;" d="M188 373L190 375L188 373z"/>
<path style="fill:#fcfdfc; stroke:none;" d="M223 373L224 374L223 373z"/>
<path style="fill:#59a426; stroke:none;" d="M233 373L234 378L235 378L235 373L233 373z"/>
<path style="fill:#97c84e; stroke:none;" d="M270.333 373.667L270.667 374.333L270.333 373.667M280 373L280 422L281 422C281 408.212 285.309 385.652 280 373z"/>
<path style="fill:#59a426; stroke:none;" d="M180.333 374.667L180.667 375.333L180.333 374.667z"/>
<path style="fill:#fcfdfc; stroke:none;" d="M213.333 374.667L213.667 375.333L213.333 374.667M182 375L183 376L182 375M204 375L205 376L204 375z"/>
<path style="fill:#1d4814; stroke:none;" d="M243 375L244 376L243 375z"/>
<path style="fill:#59a426; stroke:none;" d="M181.333 376.667L181.667 377.333L181.333 376.667z"/>
<path style="fill:#fcfdfc; stroke:none;" d="M183 376L184 377L183 376z"/>
<path style="fill:#97c84e; stroke:none;" d="M192 376L191 379L203 386L204 383L192 376z"/>
<path style="fill:#59a426; stroke:none;" d="M258 377L257 379L259 379L258 377M182 378L184 381L182 378z"/>
<path style="fill:#fcfdfc; stroke:none;" d="M184 378L185 379L184 378M211.667 378.333L212.333 378.667L211.667 378.333M185 379C190.148 394.311 206.175 398.998 221 399L219 396L225 396L225 395C208.972 392.023 198.564 388.266 185 379z"/>
<path style="fill:#59a426; stroke:none;" d="M247 382L247 386L257 381L247 382M184 381L184 384L185 384L184 381M171 383L172 384L171 383M185 384L186 385L185 384z"/>
<path style="fill:#97c84e; stroke:none;" d="M206 387L216 389C214.784 384.858 208.323 382.999 206 387z"/>
<path style="fill:#59a426; stroke:none;" d="M186.333 385.667L186.667 386.333L186.333 385.667M187 387L188 388L187 387M188 388L185 424C188.442 430.557 194.421 428.087 200.576 427.802C214.047 427.177 227.507 426.021 241 426C246.248 425.992 254.742 427.599 257 422L254 422L248 398L251 397L251 396C226.291 399.649 210.026 402.506 188 388z"/>
<path style="fill:#97c84e; stroke:none;" d="M222 388L223 389L222 388z"/>
<path style="fill:#59a426; stroke:none;" d="M259 390L260 391L259 390M258 391L259 392L258 391M256.667 392.333L257.333 392.667L256.667 392.333M251 395L251 396L256 394L251 395z"/>
<path style="fill:#97c84e; stroke:none;" d="M170 404L170 423L171 423L170 404M213 414L208 418L210 421L207 422L204 419C205.936 425.672 212.137 425.733 218 424L217 420L214 421L213 414M199 416L200 417L199 416M215 416L216 417L215 416M200 420L201 421L200 420M196 422L196 424L198 424L198 422L196 422z"/>
<path style="fill:#59a426; stroke:none;" d="M263 423L263 427L265 427L265 423L263 423M259 424L258 427L259 424z"/>
<path style="fill:#ac4841; stroke:none;" d="M279 424L280 425L279 424z"/>
<path style="fill:#59a426; stroke:none;" d="M171.333 425.667L171.667 426.333L171.333 425.667z"/>
<path style="fill:#97c84e; stroke:none;" d="M193 425L194 426L193 425z"/>
<path style="fill:#59a426; stroke:none;" d="M279.333 425.667L279.667 426.333L279.333 425.667z"/>
<path style="fill:#97c84e; stroke:none;" d="M171 427L171 430L172 430L171 427M279.333 427.667L279.667 428.333L279.333 427.667z"/>
<path style="fill:#ac4841; stroke:none;" d="M278 429L279 430L278 429z"/>
<path style="fill:#59a426; stroke:none;" d="M278 430L279 431L278 430M172 431L173 432L172 431z"/>
<path style="fill:#97c84e; stroke:none;" d="M278.333 431.667L278.667 432.333L278.333 431.667M172.333 432.667L172.667 433.333L172.333 432.667z"/>
<path style="fill:#ac4841; stroke:none;" d="M277 433L278 434L277 433z"/>
<path style="fill:#59a426; stroke:none;" d="M173 434L174 435L173 434z"/>
<path style="fill:#97c84e; stroke:none;" d="M277 434L278 435L277 434M173 435L174 436L173 435z"/>
<path style="fill:#59a426; stroke:none;" d="M276 435L277 436L276 435M174 436L175 437L174 436z"/>
<path style="fill:#97c84e; stroke:none;" d="M276 436L277 437L276 436z"/>
<path style="fill:#59a426; stroke:none;" d="M175 437L176 438L175 437z"/>
<path style="fill:#97c84e; stroke:none;" d="M275 437L276 438L275 437z"/>
<path style="fill:#59a426; stroke:none;" d="M176 438L177 439L176 438z"/>
<path style="fill:#ac4841; stroke:none;" d="M273 438L274 439L273 438z"/>
<path style="fill:#97c84e; stroke:none;" d="M274 438L275 439L274 438M177 439L178 440L177 439z"/>
<path style="fill:#59a426; stroke:none;" d="M178 439L179 440L178 439M272 439L273 440L272 439z"/>
<path style="fill:#97c84e; stroke:none;" d="M179.667 440.333L180.333 440.667L179.667 440.333z"/>
<path style="fill:#59a426; stroke:none;" d="M181 440L182 441L181 440z"/>
<path style="fill:#ac4841; stroke:none;" d="M182 440L183 441L182 440z"/>
<path style="fill:#59a426; stroke:none;" d="M269 440L270 441L269 440z"/>
<path style="fill:#97c84e; stroke:none;" d="M270.667 440.333L271.333 440.667L270.667 440.333M183 441L183 442L187 442L183 441z"/>
<path style="fill:#59a426; stroke:none;" d="M187 441L188 442L187 441z"/>
<path style="fill:#ac4841; stroke:none;" d="M188 441L189 442L188 441M262 441L263 442L262 441z"/>
<path style="fill:#59a426; stroke:none;" d="M263.667 441.333L264.333 441.667L263.667 441.333z"/>
<path style="fill:#97c84e; stroke:none;" d="M265 441L265 442L268 442L265 441M190 442L190 443L199 443L190 442z"/>
<path style="fill:#59a426; stroke:none;" d="M199 442L200 443L199 442z"/>
<path style="fill:#ac4841; stroke:none;" d="M200 442L201 443L200 442z"/>
<path style="fill:#97c84e; stroke:none;" d="M201.667 442.333L202.333 442.667L201.667 442.333z"/>
<path style="fill:#ac4841; stroke:none;" d="M205 442L206 443L205 442z"/>
<path style="fill:#59a426; stroke:none;" d="M206.667 442.333L207.333 442.667L206.667 442.333z"/>
<path style="fill:#ac4841; stroke:none;" d="M211 442L212 443L211 442M243 442L244 443L243 442z"/>
<path style="fill:#59a426; stroke:none;" d="M247 442L247 443L250 443L247 442z"/>
<path style="fill:#ac4841; stroke:none;" d="M250 442L251 443L250 442z"/>
<path style="fill:#59a426; stroke:none;" d="M251 442L252 443L251 442z"/>
<path style="fill:#97c84e; stroke:none;" d="M252 442L252 443L260 443L252 442M204 443L205 444L204 443M208.667 443.333L209.333 443.667L208.667 443.333M213 443L213 444L216 444L213 443M218 443L218 444L222 444L218 443M223 443L223 444L238 444L223 443M240 443L240 444L243 444L240 443M245.667 443.333L246.333 443.667L245.667 443.333z"/>
</svg>
