<?xml version="1.0" standalone="no"?>
<!DOCTYPE svg PUBLIC "-//W3C//DTD SVG 20010904//EN"
 "http://www.w3.org/TR/2001/REC-SVG-20010904/DTD/svg10.dtd">
<svg version="1.0" xmlns="http://www.w3.org/2000/svg"
 width="800.000000pt" height="484.000000pt" viewBox="0 0 800.000000 484.000000"
 preserveAspectRatio="xMidYMid meet">
<metadata>
Created by potrace 1.16, written by Peter Selinger 2001-2019
</metadata>
<g transform="translate(0.000000,484.000000) scale(0.100000,-0.100000)"
fill="#000000" stroke="none">
<path d="M2437 4814 c-32 -13 -92 -29 -135 -35 -117 -18 -128 -26 -130 -96 -1
-35 5 -72 15 -92 15 -34 15 -35 -8 -50 -51 -34 -58 -47 -48 -86 6 -19 8 -39 5
-44 -3 -5 1 -11 8 -14 8 -3 19 -15 25 -25 13 -24 -13 -57 -76 -96 -24 -14 -43
-31 -43 -36 0 -5 -9 -6 -22 -1 -19 7 -22 15 -20 44 3 33 1 36 -30 42 -18 4
-63 16 -100 27 -61 18 -95 18 -84 0 2 -4 -1 -14 -7 -23 -13 -17 -127 -44 -136
-32 -8 10 -114 17 -139 9 -11 -4 -22 -16 -25 -26 -8 -31 -41 -23 -71 18 -81
106 -139 114 -218 28 -63 -68 -67 -81 -31 -120 16 -17 28 -38 26 -48 -6 -24
-55 -40 -96 -33 -41 8 -77 -1 -77 -18 1 -18 30 -48 86 -89 64 -47 123 -114
126 -142 1 -11 3 -40 4 -64 1 -23 9 -58 19 -78 21 -44 9 -85 -26 -95 -41 -12
-124 -10 -137 3 -23 23 -45 -15 -47 -79 l-2 -58 -38 -3 c-23 -2 -35 0 -31 7 4
6 -10 14 -31 20 -109 29 -152 37 -190 35 -29 -1 -49 4 -64 17 -12 10 -37 24
-56 31 -20 7 -32 17 -29 25 3 7 -5 20 -17 30 -12 10 -22 24 -23 31 -2 30 -5
32 -31 26 -16 -3 -35 -8 -43 -11 -21 -8 -48 -12 -105 -14 -61 -3 -95 20 -95
63 0 16 4 28 9 28 4 0 21 19 36 42 15 23 37 51 49 63 20 20 85 55 103 55 4 0
27 13 51 29 40 26 78 71 107 127 6 12 30 38 52 56 l40 34 -33 23 c-28 19 -37
21 -49 11 -8 -7 -15 -10 -15 -6 0 3 -15 -3 -32 -14 -18 -11 -49 -27 -68 -36
-19 -9 -42 -23 -52 -31 -9 -8 -23 -15 -31 -17 -8 -1 -21 -7 -28 -13 -24 -19
-101 -55 -128 -60 -14 -2 -28 -9 -32 -14 -3 -5 -22 -12 -42 -16 -38 -6 -54 5
-197 135 l-25 22 -3 -96 c-2 -72 1 -101 11 -113 40 -45 42 -120 6 -173 -18
-25 -19 -77 -19 -1350 0 -779 4 -1317 9 -1309 5 8 7 19 5 25 -2 6 0 17 5 25 7
11 13 11 32 0 13 -7 32 -13 41 -14 10 -1 20 -4 23 -7 8 -8 -6 -68 -16 -68 -5
0 -9 -7 -9 -16 0 -8 4 -12 10 -9 5 3 10 1 10 -4 0 -6 0 -14 0 -18 0 -5 -4 -8
-9 -8 -5 0 -13 -4 -18 -9 -5 -5 2 -6 17 -3 14 4 35 7 48 7 15 0 22 6 22 20 0
12 7 35 16 51 14 28 14 33 -1 56 -16 24 -16 28 1 72 10 25 17 54 16 63 -2 12
7 20 29 26 24 6 35 15 40 37 5 15 12 31 16 34 4 3 13 15 19 26 8 14 26 22 60
26 28 4 64 14 81 23 18 9 48 16 67 16 19 0 38 5 42 11 9 16 76 3 116 -21 39
-24 88 -27 88 -6 0 8 -16 27 -35 42 -29 21 -35 33 -35 63 0 47 -8 57 -52 65
-21 4 -40 11 -43 15 -7 13 24 83 46 104 10 10 19 28 19 40 0 20 115 158 132
157 4 0 19 11 34 25 15 14 45 30 68 36 23 6 43 14 46 18 10 13 50 31 70 31 11
0 20 5 20 10 0 6 5 10 12 10 6 0 29 8 49 18 35 15 39 21 39 55 l0 37 53 -2
c51 -2 83 7 162 42 22 10 83 30 135 45 52 15 106 35 120 44 43 31 65 33 86 10
10 -12 18 -22 16 -23 -2 0 0 -9 3 -18 8 -19 35 -13 35 8 0 8 1 14 3 14 1 1 20
3 42 6 60 8 65 11 65 41 0 20 -13 39 -51 73 -28 25 -86 78 -128 118 -104 101
-141 118 -266 124 -107 6 -151 19 -161 50 -8 25 -43 38 -73 27 -14 -6 -28 -6
-35 0 -6 5 -40 19 -76 31 -36 12 -75 28 -87 36 -30 19 -68 18 -133 -6 -67 -24
-122 -23 -114 3 3 9 1 17 -5 17 -6 0 -10 5 -9 11 6 26 -20 17 -34 -11 -14 -29
-16 -30 -21 -10 -3 12 -10 19 -16 15 -6 -3 -11 -2 -11 3 0 6 6 12 14 15 15 6
16 43 3 64 -7 11 -41 20 -112 28 -22 3 -49 8 -60 11 -25 6 -54 11 -130 20 -33
4 -53 9 -45 12 8 3 17 8 20 13 6 8 43 15 150 28 41 5 82 12 90 16 29 11 142
15 411 15 l266 0 -5 29 c-2 16 1 32 9 36 8 6 10 4 4 -5 -5 -7 3 -5 17 6 14 10
24 24 21 29 -2 6 7 21 20 33 25 24 137 41 215 34 46 -4 53 -19 23 -46 -10 -10
-18 -25 -16 -34 2 -9 4 -20 4 -25 1 -11 51 -52 64 -52 7 -1 19 -4 27 -7 21 -9
182 -30 265 -36 39 -2 160 1 270 7 l200 12 31 32 c17 18 44 43 60 57 l29 25
-25 -30 c-14 -16 -31 -36 -39 -44 -70 -77 -174 -327 -140 -339 13 -5 11 -32
-2 -32 -13 0 -10 -79 4 -97 5 -7 6 -13 2 -13 -4 0 -3 -6 2 -12 6 -7 13 -32 17
-54 5 -39 35 -110 37 -89 0 6 5 -1 11 -15 6 -14 10 -28 10 -32 -1 -5 2 -8 8
-8 5 0 10 -5 10 -11 0 -17 114 -139 130 -139 6 0 9 -4 5 -9 -7 -12 34 -36 57
-33 20 4 35 -18 19 -27 -7 -5 -1 -13 16 -22 59 -30 144 -97 131 -103 -7 -3 -3
-3 9 0 14 3 25 -1 32 -13 6 -10 11 -15 11 -11 0 4 33 -12 73 -35 39 -23 95
-52 122 -64 28 -12 76 -33 108 -47 32 -14 67 -36 77 -48 11 -13 19 -17 20 -10
0 19 20 14 20 -5 0 -15 2 -16 10 -3 8 13 10 12 10 -2 0 -10 7 -18 15 -18 8 0
24 -6 35 -12 17 -11 22 -10 30 2 18 28 32 -2 18 -41 -12 -36 -24 -49 -48 -49
-12 0 -12 2 -1 9 20 13 -4 24 -35 17 -19 -5 -24 -3 -18 5 5 8 2 10 -8 6 -9 -3
-21 0 -28 6 -10 9 -14 9 -17 0 -6 -16 -43 -17 -43 -2 0 8 -4 8 -15 -1 -19 -16
-53 -4 -92 33 -22 20 -33 26 -33 16 -1 -11 -3 -10 -10 3 -10 17 -50 14 -50 -4
0 -5 4 -7 9 -4 9 6 25 -23 17 -31 -6 -6 -146 64 -167 83 -24 21 -29 17 -29
-22 0 -21 -4 -33 -10 -29 -5 3 -10 21 -10 39 0 22 -8 40 -27 58 -41 38 -83 62
-83 49 0 -8 -7 -7 -21 3 -12 8 -27 12 -34 10 -19 -8 -71 22 -121 68 -24 22
-44 37 -44 32 0 -5 15 -23 34 -41 19 -17 32 -34 28 -38 -4 -4 -2 -5 3 -3 9 3
75 -58 75 -69 0 -2 -11 4 -25 13 -14 9 -25 14 -25 12 0 -11 165 -178 176 -178
8 0 14 -4 14 -8 0 -5 20 -22 45 -40 33 -23 43 -36 38 -48 -4 -12 -3 -15 6 -10
7 5 11 17 8 27 -9 34 8 20 36 -32 15 -27 25 -54 22 -60 -4 -5 1 -16 9 -25 9
-8 16 -22 16 -30 0 -17 16 -19 26 -2 4 7 3 8 -4 4 -7 -4 -12 -1 -12 8 0 10 6
13 15 10 8 -4 15 -16 15 -28 1 -21 1 -21 15 -2 14 18 15 18 15 2 0 -9 3 -15 8
-13 4 3 13 -1 20 -9 11 -12 9 -14 -10 -15 -22 0 -22 -1 -3 -8 11 -5 26 -6 33
-4 10 4 18 -19 10 -30 -7 -9 27 -37 44 -37 10 0 16 -5 13 -10 -4 -6 -11 -8
-16 -5 -16 11 -31 -5 -19 -20 8 -9 7 -17 -5 -28 -20 -21 -19 -31 3 -22 14 5
15 4 5 -6 -18 -18 -16 -27 3 -25 9 0 19 -6 22 -14 3 -12 2 -12 -8 -3 -7 6 -19
9 -28 5 -13 -5 -13 -6 3 -12 10 -4 19 -13 21 -21 1 -8 5 -22 9 -32 4 -10 3
-17 -5 -17 -7 0 -10 -6 -7 -14 3 -8 -1 -22 -9 -33 -14 -17 -14 -17 -8 1 4 10
1 22 -7 28 -11 7 -11 11 -1 15 17 7 5 23 -13 16 -16 -6 -21 -33 -6 -33 4 0 11
-19 14 -41 3 -23 11 -45 17 -49 8 -5 5 -9 -7 -12 -14 -4 -19 -15 -20 -47 -1
-27 2 -39 9 -35 5 4 4 -4 -3 -17 -7 -13 -12 -25 -11 -26 1 -2 -1 -2 -5 -1 -5
2 -7 7 -5 13 2 5 -10 -6 -27 -25 -17 -19 -30 -29 -31 -22 0 6 5 12 10 12 6 0
1 9 -10 20 -21 21 -23 29 -20 72 2 33 -16 68 -35 68 -7 0 -17 4 -20 10 -3 5 0
7 9 4 8 -3 19 3 25 14 7 13 7 22 1 24 -5 2 -11 15 -12 30 -1 15 -8 30 -15 32
-7 3 -13 19 -13 35 0 16 -5 33 -10 36 -6 4 -7 11 -4 17 5 8 1 9 -11 4 -15 -5
-16 -4 -6 8 8 9 8 16 2 20 -12 8 -25 -30 -15 -45 4 -7 3 -9 -3 -6 -6 4 -16 -8
-23 -26 -7 -17 -17 -42 -23 -55 -9 -18 -8 -25 3 -33 12 -8 10 -9 -6 -4 -17 4
-22 1 -20 -12 0 -10 -4 -17 -11 -16 -19 4 -23 -26 -5 -39 18 -13 22 -44 9 -65
-4 -6 -3 -14 2 -17 4 -3 9 -17 9 -31 0 -25 -1 -24 -34 12 l-33 38 8 -30 c5
-16 12 -38 16 -49 7 -16 6 -17 -16 -6 l-24 11 21 -18 c12 -10 26 -27 32 -38 9
-17 7 -21 -8 -21 -10 0 -16 4 -14 8 3 4 -8 20 -24 35 -16 15 -32 37 -36 48 -4
15 -16 21 -38 23 -38 3 -62 23 -64 55 -4 47 -17 89 -31 94 -19 7 -73 -17 -73
-32 0 -12 -21 -25 -41 -25 -12 0 2 33 18 43 18 11 17 27 -2 27 -8 0 -15 -4
-15 -9 0 -18 -33 -21 -57 -5 -21 13 -30 14 -54 4 -36 -15 -39 -54 -8 -94 24
-30 15 -49 -31 -69 -39 -17 -44 -14 -45 25 -2 52 -29 80 -63 67 -20 -8 -29 -6
-41 6 -15 15 -14 18 11 40 15 12 25 25 22 28 -11 11 -97 -14 -113 -34 -16 -20
-21 -21 -54 -10 -31 11 -39 10 -53 -3 -19 -20 -31 -20 -41 -2 -4 8 -20 17 -35
21 -21 5 -33 1 -52 -19 -15 -14 -26 -21 -26 -16 0 4 -8 6 -19 3 -10 -2 -26 3
-35 12 -16 16 -16 18 0 36 9 11 23 19 31 19 8 0 34 12 59 26 41 24 45 25 75
10 24 -12 28 -12 20 -2 -9 10 -9 15 -1 18 8 2 6 14 -7 36 -18 31 -19 32 -77
28 -32 -3 -61 -7 -64 -10 -11 -11 -30 30 -25 54 3 18 -5 38 -27 68 -31 44 -43
51 -120 73 -25 7 -56 20 -70 30 -44 29 -68 32 -79 10 -13 -23 -3 -113 13 -123
5 -4 -2 -10 -17 -13 -23 -6 -25 -11 -20 -36 3 -17 1 -29 -5 -29 -6 0 -17 -7
-25 -15 -17 -16 -12 -56 7 -52 6 1 9 -5 7 -13 -2 -8 -5 -35 -6 -60 -1 -25 -3
-48 -4 -52 0 -4 -17 -4 -38 -1 l-36 6 6 -36 c5 -33 1 -41 -49 -94 l-54 -58
-23 25 c-13 15 -30 24 -43 22 -17 -2 -21 2 -19 20 2 13 6 31 10 40 8 19 -1 22
-60 18 -50 -2 -61 -9 -81 -46 -14 -26 -30 -40 -59 -50 -41 -13 -100 -72 -111
-109 -7 -24 -61 -61 -104 -70 -17 -4 -30 -10 -28 -13 2 -4 9 -23 17 -43 15
-38 52 -59 105 -59 20 0 26 -4 24 -17 -2 -12 4 -19 19 -21 22 -3 67 18 163 80
104 67 194 98 330 114 69 8 144 12 168 9 45 -7 54 4 23 26 -33 23 -32 112 0
130 17 9 25 7 43 -10 12 -12 29 -21 37 -21 8 0 24 -6 35 -14 17 -12 27 -13 56
-3 19 7 33 18 31 24 -6 16 31 35 52 27 10 -4 25 2 40 16 14 13 32 20 47 18 19
-2 24 -10 26 -40 3 -35 -3 -43 -29 -40 -4 1 -15 -8 -24 -18 -10 -11 -24 -20
-31 -20 -8 0 -11 -6 -8 -15 4 -10 -6 -28 -26 -47 l-33 -31 -18 21 c-23 29 -32
28 -67 -8 -17 -16 -38 -30 -47 -30 -9 0 -28 -9 -43 -20 -23 -17 -47 -21 -142
-25 -161 -5 -246 -19 -307 -49 -29 -14 -57 -26 -63 -26 -5 0 -10 -4 -10 -9 0
-5 -10 -25 -22 -45 -21 -33 -27 -35 -75 -36 -28 0 -55 -4 -58 -10 -3 -5 -14
-10 -24 -10 -10 0 -26 -12 -36 -26 -13 -20 -19 -23 -31 -14 -7 7 -11 16 -9 21
11 16 -36 31 -78 23 l-42 -7 41 -18 c23 -9 44 -21 47 -26 3 -5 35 -10 72 -11
52 -3 71 0 86 14 14 12 22 14 32 6 13 -11 38 -8 149 15 15 3 35 14 44 24 21
24 94 27 94 4 0 -17 -42 -30 -66 -21 -8 3 -28 -1 -44 -9 -15 -8 -45 -19 -66
-24 -22 -5 -100 -26 -174 -46 -74 -19 -164 -42 -200 -49 -36 -8 -96 -21 -135
-31 -38 -9 -97 -21 -130 -27 -33 -5 -67 -13 -75 -15 -8 -3 -27 -7 -43 -8 -15
-1 -33 -7 -40 -13 -8 -7 -18 -7 -27 -2 -9 6 -18 3 -26 -8 -9 -12 -16 -14 -24
-6 -8 8 -30 4 -80 -14 l-70 -25 0 -118 0 -119 4000 0 4000 0 0 626 c0 414 -3
623 -10 619 -6 -3 -10 4 -10 16 0 20 -1 21 -17 7 -25 -21 -87 -18 -91 4 -2 12
5 19 22 24 14 3 26 10 26 15 0 5 6 9 14 9 8 0 26 14 40 31 20 23 26 42 26 78
0 58 -18 80 -86 106 -27 10 -58 24 -69 32 -11 7 -38 13 -60 13 -22 0 -54 9
-73 20 -18 11 -40 20 -49 20 -9 0 -35 9 -57 19 -46 22 -145 49 -194 53 -17 1
-32 5 -32 9 0 4 -13 7 -30 7 -29 -1 -110 -63 -110 -84 0 -5 -9 -10 -20 -10
-11 0 -20 4 -20 8 0 4 -5 8 -10 8 -7 0 -6 -8 1 -22 11 -21 11 -22 -4 -9 -12 9
-17 10 -17 2 0 -14 14 -20 57 -25 17 -2 39 -10 47 -19 9 -8 30 -19 48 -22 18
-4 39 -12 45 -17 7 -6 20 -8 28 -4 8 3 15 1 15 -4 0 -6 7 -10 15 -10 8 0 15
-7 15 -15 0 -9 6 -12 15 -9 11 4 15 -1 16 -17 l0 -24 9 23 c14 34 34 28 26 -8
-3 -19 -2 -29 4 -25 6 3 10 13 10 21 0 8 8 14 19 14 23 0 46 -25 32 -34 -6 -4
-2 -15 9 -26 11 -11 20 -27 20 -35 0 -8 11 -17 25 -21 15 -4 25 -13 25 -24 0
-29 -17 -33 -40 -10 -27 27 -66 26 -75 -2 -7 -21 -8 -20 -12 9 -3 19 -12 37
-24 43 -10 6 -19 21 -20 33 0 12 -3 16 -6 10 -2 -7 -11 -13 -18 -13 -8 0 -36
-23 -62 -52 -83 -89 -101 -104 -129 -104 -12 0 -20 5 -17 12 5 15 -28 49 -36
36 -3 -5 -16 -13 -29 -16 -28 -9 -56 -50 -48 -71 3 -8 1 -15 -4 -15 -6 0 -10
5 -10 10 0 6 -7 10 -16 10 -11 0 -14 5 -10 17 4 9 11 75 17 147 5 72 16 165
25 206 8 41 20 120 25 175 11 109 16 148 18 154 0 2 9 -3 19 -10 14 -11 15
-11 5 1 -22 24 -14 59 26 118 85 123 100 131 134 73 9 -16 31 -34 49 -41 78
-29 107 -46 110 -64 3 -20 12 -26 66 -48 24 -10 32 -19 32 -38 0 -14 10 -34
22 -44 25 -21 126 -56 164 -56 13 0 60 -13 106 -30 45 -16 83 -30 85 -30 2 0
3 700 3 1555 l0 1555 -2020 0 c-1111 0 -2020 -1 -2020 -2 0 -2 7 -25 15 -52 8
-27 13 -51 10 -54 -2 -3 0 -13 6 -24 5 -10 12 -35 15 -56 2 -20 9 -59 14 -87
12 -56 4 -255 -9 -268 -5 -5 -7 -15 -4 -23 7 -20 -55 0 -73 23 -7 10 -14 42
-14 71 l0 53 -58 -31 c-79 -42 -109 -73 -121 -123 -6 -23 -17 -62 -25 -87 -9
-25 -18 -73 -21 -105 -10 -102 -27 -179 -47 -207 -10 -14 -18 -30 -18 -36 0
-5 -11 -30 -25 -54 -14 -25 -28 -65 -31 -89 -4 -24 -8 -46 -10 -48 -2 -2 -27
-6 -55 -9 l-52 -5 6 37 c3 22 2 36 -5 36 -5 0 -8 7 -4 15 3 8 2 15 -2 15 -14
0 -4 227 12 300 23 102 38 169 43 193 l6 29 -49 -8 c-98 -16 -131 2 -119 61
14 67 3 107 -19 71 -6 -10 -39 -47 -73 -82 l-61 -63 -84 -6 -83 -7 -13 31 c-8
17 -11 39 -8 48 8 20 -3 103 -14 103 -16 0 -41 -69 -34 -95 3 -14 10 -25 14
-25 21 0 -19 -51 -47 -61 -18 -6 -33 -14 -33 -19 0 -15 23 -60 30 -60 8 0 9
-9 14 -66 2 -23 9 -50 15 -61 5 -11 7 -23 4 -27 -3 -3 2 -15 12 -26 17 -19 18
-26 7 -66 -7 -24 -12 -57 -12 -72 -1 -24 -36 -81 -44 -71 -1 2 -9 20 -16 39
-8 19 -23 44 -33 55 -23 24 -77 101 -77 109 0 12 -138 192 -181 236 -24 25
-54 57 -65 70 -12 14 -38 38 -58 53 -21 16 -35 31 -32 35 3 3 1 11 -5 19 -6 7
-9 22 -6 33 3 11 1 20 -4 20 -9 0 -30 42 -24 48 5 6 41 -33 48 -51 5 -13 19
-17 57 -17 45 0 50 2 41 18 -5 9 -9 30 -9 45 0 16 -3 32 -8 37 -7 7 -53 15
-107 19 -5 1 -5 6 -2 11 3 6 -2 10 -12 10 -14 0 -15 2 -4 9 7 5 11 13 7 19 -3
5 13 27 35 48 22 22 51 59 65 84 14 25 34 62 46 82 23 41 63 58 82 34 6 -8 34
-17 61 -19 28 -3 94 -13 148 -22 54 -9 112 -15 130 -12 119 19 199 36 257 53
25 7 59 15 75 17 17 2 -163 4 -400 5 l-430 0 -58 -24z m3803 -374 c-6 -11 -13
-20 -15 -20 -3 0 -5 9 -5 20 0 11 7 20 15 20 13 0 14 -4 5 -20z m-156 -85 c16
-25 33 -45 37 -45 5 0 9 -6 9 -14 0 -8 13 -20 29 -27 20 -9 31 -22 34 -42 2
-15 0 -30 -4 -32 -14 -10 -69 30 -69 50 -1 33 -54 83 -82 77 -9 -2 -10 24 -2
56 9 31 16 28 48 -23z m111 -65 c3 -5 1 -10 -4 -10 -6 0 -11 5 -11 10 0 6 2
10 4 10 3 0 8 -4 11 -10z m63 -12 c7 -7 11 -28 11 -47 -1 -22 -3 -28 -6 -14
-2 12 -11 27 -19 33 -15 13 -19 40 -6 40 4 0 13 -5 20 -12z m-4625 -46 c23 12
31 5 22 -21 -3 -12 -15 -21 -25 -21 -10 0 -24 -2 -32 -5 -7 -3 -21 0 -31 7
-16 12 -16 15 -1 36 14 21 18 22 33 8 12 -11 21 -12 34 -4z m4687 -18 c0 -8
-5 -12 -10 -9 -6 4 -8 11 -5 16 9 14 15 11 15 -7z m-250 -55 c0 -5 -4 -9 -10
-9 -5 0 -10 7 -10 16 0 8 5 12 10 9 6 -3 10 -10 10 -16z m-1380 -4 c0 -10 -10
-15 -30 -15 -20 0 -30 5 -30 15 0 10 10 15 30 15 20 0 30 -5 30 -15z m1540
-32 c0 -7 6 -13 13 -12 41 5 77 -2 77 -16 0 -18 -9 -19 -45 -5 -23 9 -26 8
-21 -5 7 -18 -10 -20 -20 -3 -6 9 -10 5 -14 -11 -9 -39 -30 -38 -23 1 3 18 6
45 6 61 0 22 3 25 13 16 8 -6 14 -18 14 -26z m119 18 c11 -7 10 -10 -6 -15
-24 -8 -55 2 -47 15 7 11 35 11 53 0z m51 -42 c0 -5 -17 -9 -37 -9 -38 0 -38
0 -13 13 26 14 50 12 50 -4z m-2182 0 c-2 -6 -8 -10 -13 -10 -5 0 -11 4 -13
10 -2 6 4 11 13 11 9 0 15 -5 13 -11z m-415 -51 c6 -18 10 -37 8 -43 -4 -12
-9 -43 -10 -67 -1 -25 -31 -23 -31 2 0 11 -4 20 -9 20 -28 0 -21 62 12 108 14
18 17 16 30 -20z m444 6 c3 -9 0 -27 -7 -42 -8 -15 -12 -33 -11 -39 1 -8 -8
-13 -22 -13 -21 0 -25 6 -31 46 -3 25 -4 49 -1 54 8 14 66 9 72 -6z m2044 -7
c-13 -13 -26 -3 -16 12 3 6 11 8 17 5 6 -4 6 -10 -1 -17z m-111 4 c0 -6 -4
-13 -10 -16 -5 -3 -10 1 -10 9 0 9 5 16 10 16 6 0 10 -4 10 -9z m-4190 -11 c0
-5 -6 -10 -12 -11 -10 0 -10 -2 0 -6 17 -7 15 -38 -4 -57 -24 -25 -54 -4 -54
39 0 27 4 34 23 38 39 8 47 7 47 -3z m4250 -26 c0 -8 -4 -14 -10 -14 -5 0 -10
9 -10 21 0 11 5 17 10 14 6 -3 10 -13 10 -21z m-200 -21 c-1 -27 -1 -27 -15
-9 -14 19 -12 36 6 36 5 0 9 -12 9 -27z m220 -42 c0 -27 -20 -47 -34 -34 -12
12 -6 22 10 16 14 -5 15 -3 6 14 -11 20 -7 33 10 33 4 0 8 -13 8 -29z m-203
-17 c-9 -9 -28 6 -21 18 4 6 10 6 17 -1 6 -6 8 -13 4 -17z m-2147 -24 c0 -5
-4 -10 -10 -10 -5 0 -10 5 -10 10 0 6 5 10 10 10 6 0 10 -4 10 -10z m2310 -38
c-14 -5 -30 16 -30 38 1 10 7 7 21 -10 14 -17 17 -26 9 -28z m-124 27 c9 -15
-11 -33 -30 -26 -9 4 -13 13 -10 22 7 17 30 20 40 4z m187 -3 c6 -15 -1 -26
-15 -26 -4 0 -8 9 -8 20 0 23 15 27 23 6z m-255 -41 c1 -14 -2 -25 -7 -25 -12
0 -23 29 -15 41 10 16 20 9 22 -16z m105 -49 c-4 -6 -7 -20 -8 -30 0 -11 -5
-21 -11 -23 -8 -3 -12 75 -5 117 1 3 8 -8 16 -24 8 -15 12 -33 8 -40z m211 38
c6 -16 -10 -19 -19 -4 -5 8 -11 7 -21 -1 -17 -14 -19 2 -3 18 14 14 35 7 43
-13z m-1994 -38 c0 -8 -4 -17 -9 -21 -12 -7 -24 12 -16 25 9 15 25 12 25 -4z
m1984 -29 c-3 -9 -10 -17 -15 -17 -4 0 -6 6 -3 14 3 8 0 17 -5 21 -6 3 -8 11
-5 17 10 16 36 -16 28 -35z m-79 -13 c7 -39 3 -50 -15 -39 -7 4 -10 16 -7 26
3 11 1 19 -4 19 -5 0 -9 7 -9 15 0 31 28 14 35 -21z m-185 16 c0 -5 -7 -10
-16 -10 -8 0 -12 5 -9 10 3 6 10 10 16 10 5 0 9 -4 9 -10z m309 -22 c-7 -13
-14 -18 -16 -11 -3 7 2 19 9 27 18 20 22 12 7 -16z m-79 12 c0 -5 -2 -10 -4
-10 -3 0 -8 5 -11 10 -3 6 -1 10 4 10 6 0 11 -4 11 -10z m-2200 -21 c-7 -11
-14 -18 -17 -15 -8 8 5 36 17 36 7 0 7 -6 0 -21z m1995 -19 c4 -20 2 -35 -9
-45 -21 -22 -23 -20 -24 30 -2 53 22 64 33 15z m669 -12 c-6 -9 -34 -11 -34
-3 0 3 6 12 13 19 12 14 31 0 21 -16z m-2594 18 c0 -3 -4 -8 -10 -11 -5 -3
-10 -1 -10 4 0 6 5 11 10 11 6 0 10 -2 10 -4z m122 -28 c-7 -7 -12 -8 -12 -2
0 6 3 14 7 17 3 4 9 5 12 2 2 -3 -1 -11 -7 -17z m-214 -9 c24 -22 21 -49 -3
-29 -10 8 -21 7 -45 -5 -29 -15 -50 -13 -50 5 0 8 59 49 71 50 3 0 15 -9 27
-21z m2252 1 c0 -4 -9 -10 -20 -13 -23 -6 -38 12 -20 23 14 9 40 2 40 -10z
m-128 -10 c22 -20 15 -26 -16 -14 -9 3 -16 12 -16 20 0 19 7 18 32 -6z m162 5
c-4 -8 -10 -15 -15 -15 -4 0 -6 7 -3 15 4 8 10 15 15 15 4 0 6 -7 3 -15z
m-2406 -7 c-7 -19 -38 -22 -38 -4 0 10 9 16 21 16 12 0 19 -5 17 -12z m2186
-16 c-6 -4 -15 -22 -19 -40 -4 -18 -13 -36 -21 -39 -8 -3 -14 -12 -14 -21 0
-12 -3 -13 -12 -4 -17 17 -28 15 -28 -7 0 -20 -49 -39 -70 -26 -13 8 -13 51 0
76 9 16 15 17 31 8 11 -6 18 -16 16 -23 -3 -7 -1 -19 4 -27 6 -10 9 -7 9 12 0
29 20 51 41 47 8 -2 15 8 17 22 4 31 32 54 46 40 8 -8 7 -13 0 -18z m-134 -2
c0 -11 -4 -20 -9 -20 -13 0 -32 26 -24 33 13 14 33 6 33 -13z m-2107 3 c4 -3
0 -14 -8 -23 -14 -15 -14 -18 1 -30 11 -10 17 -11 22 -3 9 14 104 13 114 -1 4
-6 2 -16 -3 -22 -7 -8 -6 -14 1 -19 15 -9 12 -25 -4 -19 -10 4 -22 -8 -36 -35
-11 -23 -27 -41 -34 -41 -8 0 -16 -5 -18 -12 -2 -6 -12 -9 -21 -5 -10 4 -14
13 -11 21 3 8 12 12 20 9 8 -3 14 1 14 10 0 8 -10 17 -21 20 -19 5 -21 10 -14
43 6 33 5 36 -8 25 -12 -10 -20 -10 -36 1 -22 14 -27 33 -11 43 6 3 10 15 10
26 0 19 29 27 43 12z m517 -29 c0 -8 -4 -12 -10 -9 -5 3 -10 10 -10 16 0 5 5
9 10 9 6 0 10 -7 10 -16z m1773 -6 c4 -12 4 -24 2 -26 -7 -7 -45 9 -45 19 0 6
5 7 10 4 6 -3 10 1 10 9 0 24 17 19 23 -6z m87 -6 c0 -4 -12 -8 -27 -9 -26 -1
-26 0 -9 13 18 13 36 11 36 -4z m620 -3 c0 -11 -4 -17 -10 -14 -5 3 -10 13
-10 21 0 8 5 14 10 14 6 0 10 -9 10 -21z m-716 -61 c-9 -30 -10 -31 -24 -23
-8 5 -6 13 6 26 22 25 27 24 18 -3z m56 -18 c0 -12 -3 -12 -16 2 -9 9 -13 21
-9 28 9 14 25 -5 25 -30z m40 10 c0 -5 -4 -10 -10 -10 -5 0 -10 5 -10 10 0 6
5 10 10 10 6 0 10 -4 10 -10z m-188 -42 c2 -13 15 -29 31 -36 16 -8 26 -19 23
-27 -3 -9 2 -11 16 -7 17 4 19 1 14 -16 -8 -23 19 -57 44 -57 12 0 15 -13 14
-58 -1 -61 -20 -111 -38 -99 -21 13 -34 10 -39 -9 -3 -11 -14 -19 -26 -19 -24
0 -28 -18 -6 -26 8 -4 15 -13 15 -21 0 -8 4 -12 9 -8 14 8 21 -9 11 -25 -7
-11 -11 -11 -24 -1 -14 12 -16 9 -16 -20 0 -19 -4 -39 -8 -45 -11 -17 -49 -26
-69 -16 -29 15 -88 32 -111 32 -15 0 -22 6 -22 19 0 11 -5 23 -11 26 -6 4 -7
14 -4 24 4 9 8 24 11 35 2 10 10 26 19 36 8 9 15 24 15 32 0 9 7 21 15 28 10
8 15 31 15 66 0 30 4 54 9 54 11 0 31 55 31 86 0 20 25 44 44 44 12 0 6 -28
-6 -33 -7 -2 0 -4 15 -4 20 0 25 3 18 10 -13 13 -15 57 -2 57 5 0 11 -10 13
-22z m42 -20 c-9 -14 -24 2 -24 25 1 21 1 21 15 3 8 -10 12 -23 9 -28z m866 4
c0 -29 -15 -60 -25 -51 -3 4 -3 25 1 47 7 45 24 48 24 4z m-2661 12 c2 -2 2
-7 -2 -10 -8 -9 -47 6 -47 17 0 9 37 3 49 -7z m1839 -2 c2 -7 -3 -12 -12 -12
-9 0 -16 7 -16 16 0 17 22 14 28 -4z m-378 -7 c30 -8 64 -12 76 -9 27 7 38 -9
30 -42 -7 -26 -33 -33 -42 -10 -3 8 -18 14 -33 14 -40 -1 -91 24 -91 44 0 10
1 18 3 18 1 0 27 -7 57 -15z m166 -32 c-11 -11 -19 6 -11 24 8 17 8 17 12 0 3
-10 2 -21 -1 -24z m294 27 c0 -5 -2 -10 -4 -10 -3 0 -8 5 -11 10 -3 6 -1 10 4
10 6 0 11 -4 11 -10z m-2086 -15 c-4 -8 -8 -15 -10 -15 -2 0 -4 7 -4 15 0 8 4
15 10 15 5 0 7 -7 4 -15z m86 5 c0 -5 -10 -10 -22 -10 -19 0 -20 2 -8 10 19
13 30 13 30 0z m2425 -31 c-1 -11 -7 -24 -14 -28 -7 -5 -10 -18 -6 -33 4 -16
1 -29 -9 -37 -14 -12 -16 -10 -16 7 0 16 -4 20 -16 15 -14 -5 -15 -3 -4 18 7
13 21 30 32 37 10 7 18 20 18 28 0 8 4 14 8 14 5 0 8 -9 7 -21z m-2650 -17
c16 -11 34 -70 28 -92 -3 -12 6 -33 24 -57 51 -65 57 -81 38 -109 -9 -14 -20
-22 -26 -18 -7 4 -6 10 0 18 13 15 4 26 -21 26 -24 0 -23 -28 2 -60 11 -14 20
-33 20 -43 0 -16 -2 -16 -29 -3 -36 19 -40 30 -36 97 3 54 0 51 -23 -20 -9
-25 -9 -38 -1 -48 23 -27 -12 -13 -42 16 -21 22 -29 39 -29 65 0 20 -4 36 -9
36 -10 0 -17 25 -26 94 -7 46 -6 49 14 43 14 -3 22 1 26 14 4 11 16 19 30 19
12 0 25 7 29 15 6 16 16 19 31 7z m471 -19 c-10 -10 -19 5 -10 18 6 11 8 11
12 0 2 -7 1 -15 -2 -18z m1810 -20 c-10 -10 -19 5 -10 18 6 11 8 11 12 0 2 -7
1 -15 -2 -18z m-1747 4 c8 -10 7 -17 -1 -25 -15 -15 -39 3 -31 24 7 18 17 18
32 1z m2121 3 c0 -5 -4 -10 -10 -10 -5 0 -10 5 -10 10 0 6 5 10 10 10 6 0 10
-4 10 -10z m-2023 -55 c13 0 17 -9 18 -38 2 -43 -30 -77 -72 -77 -16 0 -27 -8
-35 -27 -16 -38 -16 -37 -32 -24 -11 9 -15 7 -19 -9 -7 -26 -37 -26 -44 0 -3
11 -9 20 -14 20 -5 0 -9 18 -9 40 0 22 4 40 9 40 5 0 13 15 16 33 8 35 33 69
46 61 5 -2 6 -17 3 -33 -4 -20 -1 -30 10 -34 9 -4 16 -16 16 -27 0 -12 4 -18
10 -15 6 4 8 16 4 27 -5 17 -3 20 10 15 14 -5 16 2 16 51 l1 57 24 -30 c14
-16 32 -30 42 -30z m73 31 c0 -8 -4 -17 -8 -20 -13 -8 -35 11 -28 23 10 16 36
14 36 -3z m1160 -22 c0 -16 -16 -19 -25 -4 -8 13 4 32 16 25 5 -4 9 -13 9 -21z
m405 16 c3 -5 1 -10 -4 -10 -6 0 -11 5 -11 10 0 6 2 10 4 10 3 0 8 -4 11 -10z
m305 -19 c0 -11 -29 -35 -35 -29 -10 9 7 38 21 38 8 0 14 -4 14 -9z m-321 -67
c-7 -9 -18 -25 -24 -37 -15 -31 -33 -33 -28 -3 6 32 55 86 61 68 2 -7 -2 -20
-9 -28z m-429 12 c0 -7 -7 -19 -15 -26 -8 -7 -15 -21 -15 -30 0 -32 -11 -49
-27 -43 -12 5 -14 0 -9 -24 8 -33 -13 -59 -39 -49 -19 7 -20 32 -1 43 7 4 27
38 45 76 29 61 61 89 61 53z m-1440 -67 c0 -6 -4 -7 -10 -4 -5 3 -10 11 -10
16 0 6 5 7 10 4 6 -3 10 -11 10 -16z m-1305 -19 c-4 -12 0 -22 11 -28 20 -11
7 -22 -40 -32 -25 -5 -30 -11 -28 -30 1 -13 -3 -27 -9 -30 -12 -8 22 -49 56
-67 16 -10 13 -12 -29 -18 -56 -9 -70 3 -60 50 23 110 23 106 2 99 -19 -6 -19
-4 3 25 23 31 39 40 39 21 0 -20 21 -9 30 16 11 28 34 23 25 -6z m1205 5 c7
-8 18 -15 24 -15 6 0 18 -15 26 -32 7 -18 15 -36 18 -41 7 -14 -62 28 -80 48
-18 21 -24 55 -9 55 5 0 14 -7 21 -15z m-1770 -10 c0 -2 -10 -10 -22 -16 -21
-11 -22 -11 -9 4 13 16 31 23 31 12z m1623 -42 c3 -10 8 -30 11 -45 5 -21 12
-28 31 -28 20 0 25 -5 25 -25 0 -28 -27 -35 -36 -10 -4 9 -19 15 -39 15 -34 0
-45 13 -45 51 0 11 7 22 15 25 8 4 15 12 15 20 0 20 18 17 23 -3z m1997 7 c0
-5 -4 -10 -10 -10 -5 0 -10 5 -10 10 0 6 5 10 10 10 6 0 10 -4 10 -10z m56
-44 c6 -17 -35 -88 -47 -80 -14 8 -11 42 7 69 18 28 32 32 40 11z m-386 -16
c0 -5 -4 -10 -10 -10 -5 0 -10 5 -10 10 0 6 5 10 10 10 6 0 10 -4 10 -10z
m-2855 -40 c4 -6 2 -17 -5 -25 -9 -10 -7 -15 10 -20 27 -8 21 -28 -11 -35 -15
-4 -23 -12 -21 -23 4 -22 -25 -34 -41 -18 -9 10 -9 15 3 24 8 7 14 23 12 37
-2 14 5 35 15 47 20 25 29 28 38 13z m2735 -35 c0 -18 -4 -23 -15 -19 -15 6
-20 35 -9 47 12 11 24 -3 24 -28z m-53 3 c-3 -8 -6 -5 -6 6 -1 11 2 17 5 13 3
-3 4 -12 1 -19z m170 5 c41 -5 43 -6 37 -32 -4 -14 -11 -34 -15 -43 -12 -23
-11 -28 6 -28 15 0 36 -39 34 -63 0 -8 -3 -7 -6 2 -5 11 -7 11 -14 0 -7 -11
-11 -10 -23 6 -9 11 -14 25 -12 31 2 6 -5 16 -15 22 -25 16 -24 42 1 49 23 6
24 9 8 27 -11 11 -15 11 -23 0 -6 -8 -21 -11 -37 -7 -22 4 -28 11 -28 30 0 22
3 24 23 18 12 -4 41 -10 64 -12z m-215 -32 c22 -11 25 -17 17 -28 -9 -10 -15
-10 -25 -2 -11 9 -14 8 -14 -5 0 -19 -23 -46 -38 -46 -19 0 -32 48 -19 72 26
50 29 52 41 37 6 -8 23 -20 38 -28z m-92 25 c0 -2 -9 -25 -20 -51 -17 -40 -18
-48 -6 -61 8 -8 17 -14 21 -14 3 0 19 -16 36 -34 31 -36 47 -38 82 -7 16 13
19 13 27 1 13 -20 12 -30 0 -30 -5 0 -10 -7 -10 -15 0 -8 5 -15 10 -15 6 0 10
5 10 10 0 6 7 10 16 10 10 0 14 6 11 15 -9 23 11 28 22 6 12 -22 15 -61 4 -61
-3 0 -15 7 -25 17 -11 10 -18 12 -18 4 0 -6 6 -14 14 -17 21 -8 29 -36 14 -46
-22 -14 -48 -9 -49 10 0 12 -3 11 -10 -7 -6 -16 -6 -28 2 -37 9 -11 7 -15 -5
-20 -9 -3 -14 -9 -12 -13 2 -3 -2 -21 -10 -39 -11 -28 -16 -31 -32 -23 -19 10
-116 24 -164 23 -31 -1 -47 15 -24 24 12 5 13 9 3 25 -9 15 -19 18 -42 13 -16
-4 -34 -13 -38 -20 -6 -10 -13 -11 -27 -4 -10 5 -28 10 -39 10 -11 0 -26 6
-34 14 -10 10 -17 12 -25 4 -13 -13 -33 -1 -26 16 3 8 1 17 -5 21 -6 3 -11 15
-11 26 0 12 4 17 11 13 7 -4 9 2 7 15 -4 31 -21 27 -30 -7 -4 -16 -17 -37 -28
-47 -20 -18 -22 -17 -75 9 -62 30 -83 68 -50 93 11 7 25 13 32 13 7 0 13 4 13
9 0 5 8 11 19 14 14 3 19 -1 19 -20 0 -25 16 -43 39 -43 12 0 12 17 -1 38 -17
28 3 57 59 83 45 21 57 23 66 12 6 -7 16 -13 22 -13 7 0 7 4 -1 12 -15 15 -16
28 -2 28 6 0 10 -7 10 -15 0 -8 5 -15 10 -15 6 0 10 9 10 20 0 13 7 20 19 20
10 0 32 7 47 15 31 16 64 20 64 8 -1 -5 -11 -21 -24 -37 l-24 -29 31 -28 c17
-16 38 -29 47 -29 12 1 12 3 -2 11 -22 12 -24 59 -3 59 8 0 15 -8 16 -17 1
-10 5 2 10 26 8 43 24 71 40 71 5 0 9 -2 9 -4z m-1310 -46 c0 -5 -4 -10 -9
-10 -6 0 -13 5 -16 10 -3 6 1 10 9 10 9 0 16 -4 16 -10z m521 -23 c-13 -24
-61 -52 -61 -35 0 20 22 49 43 57 29 11 33 6 18 -22z m1179 -7 c0 -5 -4 -10
-10 -10 -5 0 -10 5 -10 10 0 6 5 10 10 10 6 0 10 -4 10 -10z m171 -22 c20 -25
25 -48 9 -48 -5 0 -10 -4 -10 -9 0 -4 11 -6 25 -4 16 4 24 11 22 23 -3 26 17
26 21 0 3 -19 21 -25 65 -22 25 3 43 -18 41 -46 -1 -12 3 -25 8 -28 6 -4 8 6
6 22 -2 15 2 29 10 31 6 3 12 -2 12 -11 0 -9 5 -16 10 -16 20 0 10 -26 -20
-52 -26 -22 -29 -31 -23 -59 5 -27 4 -31 -10 -26 -20 8 -28 -4 -29 -43 -1 -17
-4 -30 -8 -30 -3 0 -16 -9 -28 -20 -12 -12 -23 -16 -27 -10 -3 6 -2 10 3 10
22 0 38 90 19 102 -8 5 -7 8 6 8 10 0 17 8 17 20 0 24 -4 25 -23 6 -22 -22
-53 -24 -49 -3 2 9 -2 17 -8 17 -5 0 -9 -3 -9 -7 5 -29 -3 -53 -17 -53 -8 0
-12 5 -9 10 10 16 -11 12 -25 -5 -10 -12 -16 -13 -27 -4 -22 19 -25 4 -4 -22
11 -13 20 -20 21 -15 0 6 6 1 14 -9 16 -22 12 -35 -9 -35 -23 0 -53 62 -52
105 0 22 4 42 9 46 4 3 -1 23 -12 44 -12 23 -16 41 -10 43 5 2 10 8 10 14 0 6
-7 8 -15 4 -17 -6 -21 9 -5 19 6 3 17 -1 26 -9 19 -20 38 -21 31 -2 -3 8 3 26
13 39 18 22 18 26 4 31 -9 3 -20 4 -25 0 -5 -3 -9 0 -9 5 0 20 41 11 61 -11z
m-2233 0 c17 -17 15 -28 -7 -28 -23 0 -36 -16 -21 -25 23 -14 7 -35 -45 -61
-45 -23 -59 -26 -74 -17 -14 9 -21 7 -32 -8 -9 -13 -23 -19 -39 -17 -14 1 -31
-1 -38 -6 -7 -4 -16 -5 -20 -1 -4 3 0 10 8 15 8 4 26 18 39 29 13 11 38 23 57
27 18 3 40 15 50 25 9 10 22 19 29 19 6 0 24 14 40 30 32 34 36 35 53 18z
m356 3 c3 -5 0 -11 -8 -14 -15 -6 -26 1 -26 15 0 11 27 10 34 -1z m1462 -33
c2 -19 -33 -20 -40 -1 -3 8 -4 19 0 24 7 12 37 -5 40 -23z m534 -5 c0 -24 -25
-9 -28 17 -3 21 -2 22 12 11 9 -7 16 -20 16 -28z m180 21 c0 -14 -3 -15 -17
-3 -10 7 -20 15 -22 16 -2 2 5 3 17 3 14 0 22 -6 22 -16z m-2360 -25 c0 -5 -4
-9 -10 -9 -5 0 -10 7 -10 16 0 8 5 12 10 9 6 -3 10 -10 10 -16z m-32 -32 c14
-24 17 -39 10 -51 -5 -9 -6 -21 -3 -26 8 -14 34 11 28 27 -3 7 0 13 6 13 6 0
11 -5 11 -12 0 -6 3 -8 8 -4 4 4 -6 18 -23 31 -16 13 -27 26 -24 29 2 3 23 2
47 -1 49 -7 57 -31 17 -57 -31 -20 -95 -84 -95 -94 0 -12 -39 -52 -50 -52 -28
0 5 98 34 102 16 2 22 12 24 37 2 18 -1 38 -7 44 -7 7 -11 7 -11 1 0 -5 -8
-10 -19 -10 -21 0 -18 23 7 44 20 16 17 17 40 -21z m2462 23 c0 -5 -2 -10 -4
-10 -3 0 -8 5 -11 10 -3 6 -1 10 4 10 6 0 11 -4 11 -10z m-2253 -22 c7 -6 10
-15 7 -20 -3 -5 3 -18 15 -29 13 -13 21 -33 22 -57 2 -46 2 -43 -6 -64 -4 -11
0 -18 12 -21 23 -6 -33 -6 -69 0 -17 3 -28 12 -32 29 -9 32 -26 30 -57 -7 -20
-24 -35 -32 -72 -36 -51 -6 -59 3 -27 32 11 10 18 20 16 23 -3 2 6 16 20 30
13 15 24 30 24 34 0 5 6 8 13 8 7 0 20 8 29 18 10 9 26 25 37 36 11 10 17 25
14 33 -5 12 -1 14 18 8 13 -4 30 -12 36 -17z m473 12 c0 -6 -7 -13 -15 -16 -8
-4 -15 -11 -15 -18 -1 -6 -16 -18 -35 -27 -27 -13 -37 -14 -45 -4 -8 9 2 21
37 44 50 32 73 39 73 21z m25 0 c3 -5 1 -10 -4 -10 -6 0 -11 5 -11 10 0 6 2
10 4 10 3 0 8 -4 11 -10z m1580 1 c3 -5 1 -12 -5 -16 -5 -3 -10 1 -10 9 0 18
6 21 15 7z m-2845 -11 c0 -5 -4 -10 -10 -10 -5 0 -10 5 -10 10 0 6 5 10 10 10
6 0 10 -4 10 -10z m2390 -10 c0 -5 -10 -10 -22 -10 -19 0 -20 2 -8 10 19 13
30 13 30 0z m120 -35 c6 4 4 -5 -6 -21 l-19 -28 -3 27 c-2 15 -8 27 -13 27 -5
0 -9 8 -9 18 0 14 4 13 19 -7 11 -15 23 -21 31 -16z m-2970 11 c0 -16 -21 -26
-56 -26 -30 0 -31 14 -1 28 31 15 57 14 57 -2z m70 -14 c0 -13 -12 -22 -22
-16 -10 6 -1 24 13 24 5 0 9 -4 9 -8z m880 -2 c0 -5 -4 -10 -10 -10 -5 0 -10
5 -10 10 0 6 5 10 10 10 6 0 10 -4 10 -10z m-856 -21 c-3 -5 -10 -7 -15 -3 -5
3 -7 10 -3 15 3 5 10 7 15 3 5 -3 7 -10 3 -15z m326 11 c13 -9 13 -11 0 -19
-9 -6 -19 -6 -27 1 -28 23 -5 39 27 18z m1213 -24 c35 -1 35 -19 0 -28 -18 -5
-35 -2 -50 8 -30 19 -30 39 0 29 12 -4 34 -8 50 -9z m1295 -6 c10 -17 10 -23
-2 -35 -8 -8 -17 -15 -19 -15 -8 0 -16 42 -10 56 7 19 16 18 31 -6z m67 -28
c-8 -9 -25 20 -18 31 3 5 10 2 15 -7 6 -10 7 -20 3 -24z m380 18 c3 -5 1 -10
-4 -10 -6 0 -11 5 -11 10 0 6 2 10 4 10 3 0 8 -4 11 -10z m-386 -50 c15 -22
15 -23 -6 -12 -16 9 -22 9 -25 0 -2 -6 -9 -8 -16 -4 -9 5 -9 12 1 26 14 24 25
22 46 -10z m351 9 c0 -5 -4 -9 -10 -9 -5 0 -10 7 -10 16 0 8 5 12 10 9 6 -3
10 -10 10 -16z m100 -20 c0 -11 -4 -17 -10 -14 -5 3 -10 13 -10 21 0 8 5 14
10 14 6 0 10 -9 10 -21z m-529 -20 c8 -16 6 -19 -9 -19 -13 0 -21 9 -24 24 -6
29 16 25 33 -5z m439 17 c0 -3 -4 -8 -10 -11 -5 -3 -10 -1 -10 4 0 6 5 11 10
11 6 0 10 -2 10 -4z m-155 -16 c3 -6 -4 -10 -17 -10 -18 0 -20 2 -8 10 19 12
18 12 25 0z m-2518 -22 c-3 -8 -6 -5 -6 6 -1 11 2 17 5 13 3 -3 4 -12 1 -19z
m638 12 c3 -5 1 -10 -4 -10 -6 0 -11 5 -11 10 0 6 2 10 4 10 3 0 8 -4 11 -10z
m1392 -6 c1 -5 -2 -16 -7 -24 -12 -20 -33 0 -24 24 7 17 25 17 31 0z m88 6
c-3 -5 -10 -10 -16 -10 -5 0 -9 5 -9 10 0 6 7 10 16 10 8 0 12 -4 9 -10z m220
1 c3 -5 1 -12 -5 -16 -5 -3 -10 1 -10 9 0 18 6 21 15 7z m95 -1 c0 -5 -4 -10
-10 -10 -5 0 -10 5 -10 10 0 6 5 10 10 10 6 0 10 -4 10 -10z m-2675 -15 c0
-12 -95 -44 -113 -37 -19 7 -9 25 17 29 13 2 31 8 40 13 20 12 56 9 56 -5z
m2705 5 c0 -5 -4 -10 -10 -10 -5 0 -10 5 -10 10 0 6 5 10 10 10 6 0 10 -4 10
-10z m140 0 c0 -5 -4 -10 -10 -10 -5 0 -10 5 -10 10 0 6 5 10 10 10 6 0 10 -4
10 -10z m-1635 -20 c3 -5 -1 -10 -9 -10 -9 0 -16 5 -16 10 0 6 4 10 9 10 6 0
13 -4 16 -10z m1330 1 c3 -5 1 -12 -4 -15 -5 -3 -11 1 -15 9 -6 16 9 21 19 6z
m-2295 -23 c0 -13 -23 -5 -28 10 -2 7 2 10 12 6 9 -3 16 -11 16 -16z m-195 -5
c-4 -10 -8 -22 -10 -28 -10 -40 -29 -75 -40 -75 -7 0 -23 9 -36 20 -15 12 -18
18 -7 14 15 -5 64 13 56 21 -2 2 -24 -1 -48 -6 -46 -11 -95 -5 -85 10 3 5 32
12 65 16 35 4 69 15 83 26 28 23 31 23 22 2z m1509 -7 c-6 -16 -24 -23 -24 -8
0 10 22 33 27 28 2 -2 1 -11 -3 -20z m956 3 c0 -11 -4 -17 -10 -14 -5 3 -10
13 -10 21 0 8 5 14 10 14 6 0 10 -9 10 -21z m-2344 -9 c21 0 17 -19 -8 -41
-17 -13 -20 -21 -11 -27 7 -4 10 -16 8 -27 -2 -11 -4 -23 -4 -26 -2 -11 -95 3
-109 15 -13 13 -7 46 10 46 5 0 7 4 4 8 -3 5 4 21 15 38 10 16 19 23 19 16 0
-10 6 -9 28 2 15 8 29 10 30 5 2 -5 10 -9 18 -9z m1864 -24 c0 -16 10 -20 40
-17 12 2 13 0 1 -7 -7 -6 -11 -14 -8 -20 4 -5 -3 -18 -15 -28 -20 -19 -21 -19
-14 4 5 13 3 22 -3 22 -6 0 -11 -9 -11 -20 0 -11 -4 -20 -10 -20 -6 0 -6 -9 0
-26 14 -35 13 -44 -6 -44 -11 0 -14 8 -12 28 2 15 -4 33 -12 40 -9 8 -9 11 -2
7 8 -4 12 -2 11 6 -2 8 3 25 10 38 7 13 10 36 7 53 -5 26 -4 27 9 14 8 -8 15
-22 15 -30z m335 15 c-9 -16 -25 -3 -18 15 4 10 9 12 15 6 6 -6 7 -15 3 -21z
m1258 15 c6 -15 -1 -26 -15 -26 -4 0 -8 9 -8 20 0 23 15 27 23 6z m-2883 0 c0
-3 -4 -8 -10 -11 -5 -3 -10 -1 -10 4 0 6 5 11 10 11 6 0 10 -2 10 -4z m1167
-11 c7 -19 5 -20 -27 -30 -23 -7 -23 -7 -7 9 9 10 15 22 12 27 -4 5 -1 9 5 9
6 0 13 -7 17 -15z m-327 -10 c0 -8 5 -15 10 -15 6 0 10 -5 10 -12 0 -6 -9 -3
-20 7 -22 20 -26 35 -10 35 6 0 10 -7 10 -15z m-1030 -9 c0 -22 -42 -48 -55
-35 -7 7 -2 16 15 29 30 23 40 25 40 6z m1213 -22 c-4 -11 -9 -12 -19 -3 -17
14 -19 -2 -2 -19 7 -7 8 -12 3 -12 -5 0 0 -7 11 -15 15 -11 16 -15 4 -15 -9 0
-5 -6 10 -15 14 -8 20 -14 13 -15 -6 0 -20 -8 -29 -17 -15 -15 -17 -15 -12 -2
3 9 2 22 -3 30 -8 12 -12 11 -24 -5 -13 -18 -16 -18 -32 -3 -15 13 -21 13 -35
3 -10 -7 -18 -19 -18 -26 0 -7 -7 -10 -16 -6 -9 3 -20 6 -25 6 -5 0 -7 10 -5
22 3 24 30 31 54 14 9 -6 11 -4 6 8 -7 19 -4 19 31 6 31 -12 49 -3 52 25 1 20
1 20 -13 1 -19 -27 -19 2 0 30 17 23 58 31 49 8z m-953 -24 c-7 -4 -9 -13 -6
-19 4 -6 4 -11 -1 -10 -22 4 -34 -3 -47 -30 -9 -16 -13 -31 -10 -33 2 -3 -3
-11 -12 -19 -15 -12 -18 -12 -22 0 -4 11 -6 11 -13 0 -7 -10 -11 -11 -16 -3
-5 7 -19 14 -33 15 -15 3 -26 12 -29 24 -2 15 0 17 10 9 8 -6 31 -10 52 -10
31 1 40 6 52 30 14 27 14 28 -2 15 -10 -8 -23 -21 -30 -29 -9 -12 -14 -13 -24
-2 -11 10 -10 12 3 12 9 0 26 13 39 29 12 16 29 27 36 24 7 -3 13 0 13 7 0 9
3 10 14 1 11 -9 15 -8 21 6 6 14 9 15 12 4 3 -7 0 -17 -7 -21z m1038 17 c7 3
10 -1 6 -10 -3 -9 2 -27 11 -40 11 -17 13 -27 5 -32 -6 -4 -8 -15 -5 -25 7
-22 -6 -32 -25 -20 -7 4 -23 4 -36 0 -16 -6 -26 -5 -34 6 -11 12 -8 13 17 8
28 -6 31 -4 41 36 l10 41 -24 -16 c-13 -8 -24 -11 -24 -5 0 5 5 10 11 10 7 0
8 11 4 31 -6 28 -5 30 12 21 10 -5 24 -7 31 -5z m662 3 c0 -5 -4 -10 -10 -10
-5 0 -10 5 -10 10 0 6 5 10 10 10 6 0 10 -4 10 -10z m197 -12 c-3 -8 -6 -5 -6
6 -1 11 2 17 5 13 3 -3 4 -12 1 -19z m-786 -5 c-5 -10 -13 -27 -16 -38 -5 -14
-9 -16 -12 -7 -6 16 16 62 29 62 4 0 4 -8 -1 -17z m872 -3 c-3 -11 -9 -20 -14
-20 -10 0 -12 24 -2 33 13 13 21 7 16 -13z m-1123 6 c0 -2 -8 -10 -17 -17 -16
-13 -17 -12 -4 4 13 16 21 21 21 13z m286 -32 c2 -12 -1 -13 -12 -3 -7 6 -11
16 -8 21 7 11 17 3 20 -18z m160 -11 c-3 -21 -5 -42 -6 -48 -1 -5 -6 1 -12 15
-9 21 -12 22 -15 8 -5 -22 -22 -23 -29 -3 -3 8 2 22 12 32 12 13 19 14 22 5 2
-6 8 -12 13 -12 6 0 7 5 4 10 -3 6 -3 15 0 20 12 19 16 10 11 -27z m194 6 c0
-6 -4 -7 -10 -4 -5 3 -10 11 -10 16 0 6 5 7 10 4 6 -3 10 -11 10 -16z m-337
-33 c4 -6 6 -25 3 -43 -3 -19 0 -33 7 -36 6 -2 1 -6 -12 -10 -22 -5 -23 -4
-17 31 3 24 2 32 -4 22 -11 -18 -16 -13 -25 28 -7 32 -6 34 16 27 13 -4 28
-13 32 -19z m788 14 c20 -6 43 -18 50 -26 11 -14 10 -18 -5 -29 -10 -8 -16
-19 -14 -26 4 -13 -44 -69 -61 -69 -6 0 -8 -7 -4 -16 4 -10 -2 -17 -16 -21
-14 -4 -24 -16 -28 -35 -8 -40 -70 -90 -95 -77 -10 5 -23 7 -28 4 -13 -8 -13
14 1 54 7 20 18 31 31 31 19 0 48 21 48 36 0 11 34 33 51 34 20 0 35 30 15 30
-7 0 -19 7 -26 15 -11 13 -8 15 14 15 14 0 34 -9 43 -19 12 -15 19 -16 28 -8
15 14 9 30 -8 20 -7 -4 -7 0 1 10 17 20 7 57 -16 58 -9 0 -34 1 -54 2 -20 1
-34 0 -32 -2 2 -3 -9 -10 -26 -17 -16 -7 -30 -20 -30 -29 0 -8 -9 -15 -20 -15
-35 0 45 72 89 81 52 10 53 10 92 -1z m-1971 -10 c0 -5 -4 -10 -10 -10 -5 0
-10 5 -10 10 0 6 5 10 10 10 6 0 10 -4 10 -10z m46 -5 c9 -9 11 -15 4 -15 -6
0 -10 -6 -9 -12 3 -26 -1 -48 -10 -48 -5 0 -9 20 -8 45 1 50 2 52 23 30z
m1074 -5 c0 -5 -4 -10 -10 -10 -5 0 -10 5 -10 10 0 6 5 10 10 10 6 0 10 -4 10
-10z m302 -5 c0 -5 -5 -11 -11 -13 -6 -2 -11 4 -11 13 0 9 5 15 11 13 6 -2 11
-8 11 -13z m-2002 -3 c0 -13 -12 -22 -22 -16 -10 6 -1 24 13 24 5 0 9 -4 9 -8z
m3750 -18 c0 -8 -5 -12 -10 -9 -6 4 -8 11 -5 16 9 14 15 11 15 -7z m-2835 -14
c-14 -15 -20 -17 -26 -8 -8 13 7 28 30 28 11 0 10 -5 -4 -20z m932 5 c0 -8 -4
-15 -9 -15 -10 0 -11 14 -1 23 9 10 10 9 10 -8z m33 -5 c0 -11 -4 -20 -10 -20
-5 0 -10 9 -10 20 0 11 5 20 10 20 6 0 10 -9 10 -20z m-2625 -9 c-3 -6 -11
-11 -17 -11 -6 0 -6 6 2 15 14 17 26 13 15 -4z m711 -6 c-2 -7 2 -16 9 -19 8
-3 12 -12 9 -21 -7 -17 11 -21 21 -5 3 6 10 10 16 10 19 0 8 -16 -26 -38 -37
-24 -50 -51 -16 -32 11 5 22 10 25 10 11 0 6 -29 -5 -36 -14 -8 -60 16 -53 28
3 4 1 8 -5 8 -6 0 -8 6 -5 14 3 8 1 17 -5 20 -7 4 -3 19 9 40 10 19 16 37 12
42 -4 4 -1 4 6 0 7 -5 11 -14 8 -21z m994 21 c0 -20 -35 -62 -60 -72 l-31 -13
38 44 c33 39 53 54 53 41z m1015 -6 c3 -5 1 -10 -4 -10 -6 0 -11 5 -11 10 0 6
2 10 4 10 3 0 8 -4 11 -10z m163 -10 c13 0 14 -2 4 -12 -7 -7 -16 -13 -20 -13
-4 0 -29 -8 -55 -19 -48 -18 -65 -17 -52 3 10 18 79 51 93 46 8 -3 21 -5 30
-5z m282 -6 c0 -8 -5 -12 -10 -9 -6 4 -8 11 -5 16 9 14 15 11 15 -7z m1318
-37 c-6 -60 -83 -212 -125 -247 -10 -8 -24 -26 -31 -40 -10 -20 -11 -21 -7 -3
10 39 -12 33 -24 -6 -11 -37 -25 -50 -62 -57 -19 -4 -141 -82 -150 -97 -4 -5
-13 -6 -22 -1 -11 7 -7 15 24 39 21 17 38 35 39 40 0 6 12 18 28 27 65 40 162
153 262 306 29 45 58 82 63 82 5 0 7 -19 5 -43z m-3918 24 c0 -6 -4 -13 -10
-16 -5 -3 -10 1 -10 9 0 9 5 16 10 16 6 0 10 -4 10 -9z m-596 -10 c3 -5 -1
-11 -9 -15 -9 -3 -15 0 -15 9 0 16 16 20 24 6z m166 -1 c0 -5 -5 -10 -11 -10
-5 0 -7 5 -4 10 3 6 8 10 11 10 2 0 4 -4 4 -10z m1370 6 c0 -2 -7 -6 -15 -10
-8 -3 -15 -1 -15 4 0 6 7 10 15 10 8 0 15 -2 15 -4z m2013 -32 c-3 -7 -9 -11
-14 -8 -5 3 -9 0 -9 -7 0 -7 -8 -5 -20 6 -11 10 -18 21 -15 24 4 3 10 -1 16
-9 8 -13 10 -13 18 0 5 8 7 19 3 25 -3 5 2 4 10 -3 9 -8 14 -20 11 -28z
m-3313 -3 c0 -10 -8 -25 -17 -32 -15 -12 -16 -12 -8 1 5 9 -1 7 -14 -5 -20
-17 -20 -21 -7 -31 9 -6 13 -14 9 -17 -11 -12 -40 -8 -52 7 -10 11 -6 22 20
50 17 20 35 33 40 30 5 -3 9 -2 8 3 -3 17 1 24 11 18 6 -3 10 -14 10 -24z
m284 11 c3 7 4 -6 1 -29 -4 -34 -2 -43 10 -43 28 0 4 -27 -25 -28 -30 -1 -42
20 -20 33 12 7 9 37 -4 46 -5 4 -5 12 -1 18 5 9 10 9 20 1 10 -8 15 -7 19 2z
m1110 -53 c-3 -5 2 -9 10 -9 9 0 16 -7 16 -15 0 -8 4 -15 8 -15 5 0 7 -18 5
-41 -2 -30 0 -38 9 -32 20 12 48 14 48 4 0 -6 -5 -13 -11 -16 -7 -5 -4 -14 7
-26 14 -16 15 -19 2 -19 -8 0 -25 8 -36 18 -12 9 -33 25 -47 35 -14 10 -25 23
-25 29 0 7 6 6 15 -2 23 -19 29 -5 12 27 -33 63 -39 83 -32 100 6 16 8 16 16
-5 5 -13 7 -28 3 -33z m676 47 c0 -3 -4 -8 -10 -11 -5 -3 -10 -1 -10 4 0 6 5
11 10 11 6 0 10 -2 10 -4z m-4610 -56 c24 -24 24 -29 4 -58 -17 -24 -92 -67
-102 -58 -10 10 -9 60 1 81 11 24 47 54 65 55 6 0 21 -9 32 -20z m3000 5 c0
-8 -9 -19 -19 -25 -26 -13 -31 -13 -31 5 0 8 7 15 15 15 8 0 15 5 15 10 0 6 5
10 10 10 6 0 10 -7 10 -15z m2897 -7 c-3 -8 -6 -5 -6 6 -1 11 2 17 5 13 3 -3
4 -12 1 -19z m-867 -18 c0 -5 -5 -10 -11 -10 -5 0 -7 5 -4 10 3 6 8 10 11 10
2 0 4 -4 4 -10z m-2015 -30 c0 -13 -6 -25 -14 -28 -10 -3 -12 0 -7 13 5 15 2
16 -21 10 l-27 -6 25 20 c29 25 44 22 44 -9z m423 -16 c-21 -51 -58 -83 -58
-51 0 14 60 90 67 84 2 -3 -2 -17 -9 -33z m-592 -11 c-10 -10 -19 5 -10 18 6
11 8 11 12 0 2 -7 1 -15 -2 -18z m839 -16 c20 -39 20 -43 4 -58 -12 -12 -20
-14 -28 -6 -14 14 -14 30 -1 22 6 -4 9 3 7 16 -2 13 -9 25 -15 27 -16 5 -15
42 1 42 6 0 21 -19 32 -43z m1620 33 c-3 -5 -16 -15 -28 -21 l-22 -12 20 21
c21 22 41 30 30 12z m-2248 -56 c-9 -10 -38 16 -31 28 4 6 13 4 22 -6 9 -8 13
-19 9 -22z m1003 32 c0 -3 -4 -8 -10 -11 -5 -3 -10 -1 -10 4 0 6 5 11 10 11 6
0 10 -2 10 -4z m1190 -20 c0 -3 -4 -8 -10 -11 -5 -3 -10 -1 -10 4 0 6 5 11 10
11 6 0 10 -2 10 -4z m-2635 -26 c-3 -5 -10 -10 -16 -10 -5 0 -9 5 -9 10 0 6 7
10 16 10 8 0 12 -4 9 -10z m-85 -8 c0 -4 -9 -13 -21 -20 -19 -12 -19 -11 -9 8
10 19 30 28 30 12z m1880 -18 c0 -18 -17 -26 -24 -12 -3 7 -4 4 -1 -7 4 -15 0
-21 -15 -22 -24 -2 -24 1 -5 31 16 24 45 31 45 10z m61 -33 c-26 -36 -45 -41
-36 -8 6 18 5 20 -6 10 -22 -21 -33 -14 -13 8 11 13 27 19 40 16 17 -3 21 0
17 12 -5 13 -3 13 7 4 10 -9 8 -18 -9 -42z m-1566 19 c-3 -5 -1 -10 4 -10 6 0
20 -9 32 -21 l20 -20 -33 3 c-28 3 -33 7 -35 31 -1 15 3 27 8 27 6 0 7 -4 4
-10z m2500 -9 c-3 -6 -11 -11 -17 -11 -6 0 -6 6 2 15 14 17 26 13 15 -4z
m-1083 -31 c42 0 58 -19 39 -49 -7 -11 -17 -8 -50 18 -23 18 -41 40 -41 48 0
14 2 14 18 0 10 -10 26 -17 34 -17z m152 -15 c-4 -8 -1 -15 6 -15 6 0 8 -5 4
-11 -4 -8 -9 -7 -15 2 -12 19 -11 39 1 39 5 0 7 -7 4 -15z m-33 -35 c19 0 45
-27 35 -37 -4 -4 -12 -1 -17 7 -9 13 -10 13 -6 -1 7 -20 -12 -50 -20 -31 -2 6
-10 12 -16 12 -13 0 -47 30 -47 42 0 5 5 6 10 3 6 -3 13 1 16 10 5 12 10 13
17 6 6 -6 19 -11 28 -11z m-968 -2 c2 -7 1 -23 -4 -36 -7 -19 -11 -21 -23 -10
-12 11 -11 15 5 23 15 9 17 13 7 23 -8 8 -8 12 -1 12 6 0 13 -6 16 -12z m54
-3 c-6 -7 -15 -11 -19 -8 -14 8 -8 19 12 20 16 1 17 -1 7 -12z m263 11 c0 -3
-4 -8 -10 -11 -5 -3 -10 -1 -10 4 0 6 5 11 10 11 6 0 10 -2 10 -4z m-18 -60
c4 -5 -7 -27 -23 -47 -25 -32 -27 -38 -13 -49 12 -10 12 -15 2 -21 -15 -10
-40 9 -31 24 4 6 0 8 -10 4 -10 -3 -17 -2 -17 3 0 6 7 10 15 10 9 0 18 8 22
18 3 9 15 25 27 35 16 13 17 16 4 11 -10 -3 -18 -1 -18 5 0 6 -5 10 -11 9 -6
-2 -14 3 -16 9 -6 16 58 6 69 -11z m78 20 c0 -3 -4 -8 -10 -11 -5 -3 -10 -1
-10 4 0 6 5 11 10 11 6 0 10 -2 10 -4z m1150 -25 c0 -4 -13 -8 -29 -8 -18 0
-27 5 -25 12 5 12 54 8 54 -4z m-2023 -25 c-3 -8 1 -17 10 -20 9 -4 13 -9 10
-13 -11 -10 -36 17 -30 33 3 8 7 14 10 14 3 0 3 -6 0 -14z m723 4 c0 -5 -4
-10 -10 -10 -5 0 -10 5 -10 10 0 6 5 10 10 10 6 0 10 -4 10 -10z m94 -5 c-7
-16 -24 -21 -24 -6 0 8 7 13 27 20 1 1 0 -6 -3 -14z m403 1 c-3 -8 0 -17 8
-20 11 -4 13 -15 5 -46 0 -3 -7 10 -15 29 -8 18 -12 37 -9 42 8 14 17 10 11
-5z m-1147 -26 c-14 -4 -29 -4 -35 -1 -5 3 1 8 15 11 14 4 29 4 35 1 5 -3 -1
-8 -15 -11z m1677 -27 c3 -9 -8 -10 -35 -4 -2 1 0 6 3 12 8 12 27 7 32 -8z
m1640 -2 c1 -11 -5 -22 -14 -25 -21 -8 -26 -2 -18 23 8 26 30 27 32 2z m-2309
-18 c-5 -25 -28 -28 -28 -4 0 12 6 21 16 21 9 0 14 -7 12 -17z m566 8 c3 -5
-12 -25 -34 -45 -22 -20 -36 -36 -30 -36 21 0 9 -18 -15 -22 -20 -4 -26 -1
-31 19 -9 36 10 68 47 80 44 14 57 15 63 4z m-2506 -37 c-4 -3 -12 5 -18 18
-12 22 -12 22 6 6 10 -10 15 -20 12 -24z m3657 26 c3 -5 -1 -10 -10 -10 -9 0
-13 5 -10 10 3 6 8 10 10 10 2 0 7 -4 10 -10z m-3690 -30 c3 -5 1 -10 -4 -10
-6 0 -11 5 -11 10 0 6 2 10 4 10 3 0 8 -4 11 -10z m2125 -10 c0 -5 -5 -10 -11
-10 -5 0 -7 5 -4 10 3 6 8 10 11 10 2 0 4 -4 4 -10z m2030 -33 c0 -5 -4 -5
-10 -2 -5 3 -10 14 -10 23 0 15 2 15 10 2 5 -8 10 -19 10 -23z m-4132 -12 c-3
-3 -9 2 -12 12 -6 14 -5 15 5 6 7 -7 10 -15 7 -18z m-2018 -15 c0 -5 -5 -10
-11 -10 -5 0 -7 5 -4 10 3 6 8 10 11 10 2 0 4 -4 4 -10z m4850 0 c0 -5 -2 -10
-4 -10 -3 0 -8 5 -11 10 -3 6 -1 10 4 10 6 0 11 -4 11 -10z m-2793 -22 c-3 -8
-6 -5 -6 6 -1 11 2 17 5 13 3 -3 4 -12 1 -19z m2493 8 c0 -6 -61 -36 -73 -36
-6 0 -2 9 8 20 15 17 65 29 65 16z m-1798 -33 c15 -31 38 -42 38 -19 0 9 7 16
15 16 8 0 15 -6 15 -14 0 -7 14 -19 30 -26 17 -7 30 -16 30 -20 0 -9 -89 -1
-110 10 -9 5 -30 7 -47 6 -31 -2 -58 24 -34 32 6 2 11 10 11 18 0 9 5 12 10 9
6 -3 10 -1 10 4 0 21 19 11 32 -16z m28 7 c0 -5 -2 -10 -4 -10 -3 0 -8 5 -11
10 -3 6 -1 10 4 10 6 0 11 -4 11 -10z m1780 -4 c0 -3 -4 -8 -10 -11 -5 -3 -10
-1 -10 4 0 6 5 11 10 11 6 0 10 -2 10 -4z m-1610 -71 c0 -16 -6 -25 -16 -25
-11 0 -14 5 -10 16 3 9 6 20 6 25 0 5 5 9 10 9 6 0 10 -11 10 -25z m181 -48
c-13 -13 -26 -3 -16 12 3 6 11 8 17 5 6 -4 6 -10 -1 -17z m-3383 -50 c-2 -11
-9 -22 -15 -25 -16 -4 -27 22 -19 43 8 22 38 6 34 -18z m-263 -248 c-2 -33 -7
-64 -10 -69 -11 -18 -30 -10 -48 19 -29 50 -18 110 23 124 29 9 40 -13 35 -74z
m2923 7 c-7 -8 -15 -12 -17 -11 -5 6 10 25 20 25 5 0 4 -6 -3 -14z m4659 -116
c3 -11 9 -17 14 -14 5 3 9 -2 9 -10 0 -8 7 -22 16 -31 21 -20 11 -53 -11 -35
-8 7 -15 22 -15 33 0 11 -3 17 -7 14 -8 -8 -42 45 -36 56 8 14 25 7 30 -13z
m-4922 -78 c-3 -3 -11 0 -18 7 -9 10 -8 11 6 5 10 -3 15 -9 12 -12z m-1140 -2
c-3 -5 -12 -10 -18 -10 -7 0 -6 4 3 10 19 12 23 12 15 0z m-56 -39 c6 -10 7
-35 4 -56 -5 -29 -2 -41 11 -51 14 -10 15 -16 5 -32 -10 -16 -17 -18 -43 -9
-17 5 -37 11 -43 13 -18 5 -16 49 2 68 9 9 11 17 5 21 -17 10 18 64 42 65 4 0
12 -8 17 -19z m5739 -4 c14 -11 16 -27 2 -27 -5 0 -10 7 -10 15 0 18 -12 19
-28 3 -9 -9 -12 -9 -12 3 0 18 29 21 48 6z m-4579 -16 c8 -5 10 -14 6 -21 -6
-9 -10 -8 -17 4 -6 11 -17 15 -31 11 -17 -5 -19 -4 -7 4 18 13 31 13 49 2z
m5095 -53 c28 -40 21 -48 -38 -39 -5 0 -7 3 -4 7 3 3 2 20 -2 39 -7 31 -6 34
11 25 10 -6 25 -20 33 -32z m-5034 -10 c0 -12 -6 -9 -26 13 -19 22 -19 22 4 8
12 -8 22 -17 22 -21z m220 -28 c0 -5 -7 -7 -15 -4 -8 4 -15 8 -15 10 0 2 7 4
15 4 8 0 15 -4 15 -10z m-55 -90 c3 -5 12 -10 18 -10 7 0 6 4 -3 10 -13 9 -13
10 0 10 8 0 21 -9 28 -20 11 -18 10 -20 -12 -20 -14 0 -28 -5 -32 -12 -4 -7
-3 -8 4 -4 17 10 15 -7 -4 -30 -8 -10 -13 -13 -9 -6 3 6 2 12 -4 12 -6 0 -7 8
-4 17 5 12 2 15 -9 10 -13 -5 -14 -1 -5 24 12 30 21 36 32 19z m-915 -35 c-14
-8 -29 -14 -35 -14 -5 0 1 6 15 14 14 8 30 14 35 14 6 0 -1 -6 -15 -14z m-704
-41 c-25 -18 -36 -18 -36 1 0 19 32 37 45 24 7 -7 4 -15 -9 -25z m571 -21 c2
-6 -11 -16 -28 -22 -18 -6 -40 -18 -50 -27 -9 -8 -20 -14 -25 -13 -18 5 -73
-13 -85 -27 -6 -8 -19 -14 -29 -14 -10 0 -44 -12 -76 -26 -61 -27 -281 -104
-297 -104 -24 0 19 30 52 36 59 10 71 15 71 29 0 20 17 27 37 16 13 -6 24 -5
38 5 10 8 26 14 35 14 24 0 95 39 95 52 0 13 29 19 123 27 6 1 12 8 12 16 0
10 10 15 28 15 16 0 39 9 52 20 24 21 41 22 47 3z m818 -23 c10 -11 16 -20 13
-20 -3 0 -13 9 -23 20 -10 11 -16 20 -13 20 3 0 13 -9 23 -20z m65 -49 c0 -5
-6 -11 -12 -13 -9 -3 -8 -10 5 -22 10 -10 15 -21 12 -24 -3 -3 -20 9 -38 27
-28 29 -29 32 -9 26 13 -4 22 -2 22 4 0 6 5 11 10 11 6 0 10 -4 10 -9z m-1400
-66 c0 -18 -23 -32 -28 -17 -2 7 -12 8 -33 0 -21 -7 -34 -7 -41 0 -16 16 1 34
26 28 11 -3 27 -1 35 3 18 11 41 3 41 -14z m-562 -21 c2 -15 -4 -23 -18 -27
-23 -6 -36 13 -26 39 8 22 40 13 44 -12z m1952 -9 c11 -13 10 -14 -4 -9 -9 3
-16 10 -16 15 0 13 6 11 20 -6z m-1590 -24 c0 -13 -26 -32 -33 -24 -8 7 11 33
24 33 5 0 9 -4 9 -9z m1640 -41 c0 -5 -2 -10 -4 -10 -3 0 -8 5 -11 10 -3 6 -1
10 4 10 6 0 11 -4 11 -10z m-1797 -15 c8 -18 -11 -31 -25 -17 -11 11 -3 32 12
32 4 0 10 -7 13 -15z m247 5 c0 -5 -7 -10 -16 -10 -8 0 -12 5 -9 10 3 6 10 10
16 10 5 0 9 -4 9 -10z m-50 -20 c-20 -13 -43 -13 -35 0 3 6 16 10 28 10 18 0
19 -2 7 -10z m1637 -52 c-3 -8 -6 -5 -6 6 -1 11 2 17 5 13 3 -3 4 -12 1 -19z"/>
<path d="M6088 3413 c7 -3 16 -2 19 1 4 3 -2 6 -13 5 -11 0 -14 -3 -6 -6z"/>
<path d="M6147 3363 c-10 -9 -9 -41 2 -47 4 -3 6 6 3 19 -3 20 -1 24 12 19 9
-3 16 -1 16 5 0 12 -23 15 -33 4z"/>
<path d="M6195 3340 c3 -5 8 -10 11 -10 2 0 4 5 4 10 0 6 -5 10 -11 10 -5 0
-7 -4 -4 -10z"/>
<path d="M6193 3312 c-8 -5 -9 -13 -3 -22 6 -10 13 -11 19 -5 13 13 -1 36 -16
27z"/>
<path d="M6110 3249 c0 -21 27 -32 36 -16 4 7 4 9 -1 5 -4 -4 -14 0 -21 10
-12 15 -13 15 -14 1z"/>
<path d="M5965 3200 c-3 -5 -1 -10 4 -10 6 0 11 5 11 10 0 6 -2 10 -4 10 -3 0
-8 -4 -11 -10z"/>
<path d="M3992 3305 c-6 -14 -8 -25 -3 -25 8 0 23 41 17 47 -1 2 -8 -8 -14
-22z"/>
<path d="M5560 3000 c0 -5 5 -10 10 -10 6 0 10 5 10 10 0 6 -4 10 -10 10 -5 0
-10 -4 -10 -10z"/>
<path d="M5280 2930 c0 -13 -7 -20 -18 -20 -10 0 -25 -11 -32 -25 -12 -22 -11
-27 6 -40 17 -12 21 -12 37 8 9 12 15 30 13 39 -2 10 0 21 5 24 12 7 11 34 -1
34 -5 0 -10 -9 -10 -20z"/>
<path d="M5331 2924 c0 -11 3 -14 6 -6 3 7 2 16 -1 19 -3 4 -6 -2 -5 -13z"/>
<path d="M5170 2910 c0 -11 2 -20 4 -20 2 0 6 9 9 20 3 11 1 20 -4 20 -5 0 -9
-9 -9 -20z"/>
<path d="M5483 2877 c5 -15 37 -22 37 -9 0 5 -9 12 -21 15 -13 3 -19 1 -16 -6z"/>
<path d="M5490 2840 c0 -5 5 -10 11 -10 5 0 7 5 4 10 -3 6 -8 10 -11 10 -2 0
-4 -4 -4 -10z"/>
<path d="M5060 2829 c0 -5 5 -7 10 -4 6 3 10 8 10 11 0 2 -4 4 -10 4 -5 0 -10
-5 -10 -11z"/>
<path d="M6065 2840 c-3 -5 -1 -10 4 -10 6 0 11 5 11 10 0 6 -2 10 -4 10 -3 0
-8 -4 -11 -10z"/>
<path d="M6160 2815 c0 -8 7 -15 15 -15 8 0 15 4 15 9 0 5 -7 11 -15 15 -9 3
-15 0 -15 -9z"/>
<path d="M6087 2773 c-2 -5 -1 -17 3 -27 6 -19 7 -19 12 2 6 21 -6 40 -15 25z"/>
<path d="M6217 2748 c7 -39 9 -42 21 -34 13 8 0 58 -16 64 -8 2 -10 -6 -5 -30z"/>
<path d="M5885 2780 c3 -5 8 -10 11 -10 2 0 4 5 4 10 0 6 -5 10 -11 10 -5 0
-7 -4 -4 -10z"/>
<path d="M3510 2540 c-24 -8 -23 -8 8 -9 17 -1 32 4 32 9 0 11 -5 11 -40 0z"/>
<path d="M4190 2539 c0 -5 5 -7 10 -4 6 3 10 8 10 11 0 2 -4 4 -10 4 -5 0 -10
-5 -10 -11z"/>
<path d="M6035 2280 c-3 -5 1 -10 9 -10 8 0 18 5 21 10 3 6 -1 10 -9 10 -8 0
-18 -4 -21 -10z"/>
<path d="M6000 2241 c0 -10 19 -25 25 -20 1 2 -3 10 -11 17 -8 7 -14 8 -14 3z"/>
<path d="M4231 2194 c0 -11 3 -14 6 -6 3 7 2 16 -1 19 -3 4 -6 -2 -5 -13z"/>
<path d="M1214 4657 c1 -12 -5 -22 -13 -22 -20 0 -33 -52 -15 -59 7 -3 16 -1
19 4 11 19 25 10 25 -15 0 -32 22 -41 66 -27 20 6 36 6 40 1 10 -17 20 -9 42
30 13 22 36 51 52 65 17 13 30 30 30 35 0 7 -42 11 -123 10 -120 0 -123 -1
-123 -22z"/>
<path d="M1610 4667 c-9 -7 -26 -26 -38 -44 l-23 -32 40 -26 c72 -45 116 -31
113 37 -4 68 -10 78 -45 78 -18 0 -39 -6 -47 -13z"/>
<path d="M910 4619 c-55 -27 -82 -37 -127 -49 -24 -6 -43 -15 -43 -20 0 -5
-11 -12 -25 -16 -14 -3 -25 -11 -25 -18 0 -6 -9 -17 -20 -24 -27 -17 -27 -88
1 -141 32 -62 44 -67 194 -82 50 -4 108 -10 130 -13 22 -3 31 -3 20 1 -22 6
-64 33 -52 33 4 0 0 14 -9 32 -18 35 -13 97 11 131 24 34 17 171 -9 180 -6 2
-27 -4 -46 -14z"/>
<path d="M2934 4595 c-11 -29 5 -64 34 -72 15 -4 32 -7 37 -8 6 0 10 -10 11
-22 3 -48 10 -53 78 -53 62 0 76 7 76 40 0 8 -93 51 -117 54 -8 1 -27 19 -44
39 -32 38 -65 48 -75 22z"/>
<path d="M1258 3073 c7 -3 16 -2 19 1 4 3 -2 6 -13 5 -11 0 -14 -3 -6 -6z"/>
<path d="M2064 2434 c-19 -19 -34 -39 -34 -43 0 -13 69 -21 96 -11 13 5 24 17
24 25 0 9 7 18 15 21 20 8 19 30 -1 38 -37 14 -67 5 -100 -30z"/>
<path d="M2130 2330 c-28 -27 -31 -32 -19 -48 12 -15 12 -16 -1 -7 -8 6 -33
11 -55 10 -34 0 -40 -3 -43 -24 -5 -30 45 -86 63 -71 9 8 14 4 19 -12 6 -21 7
-22 20 -5 7 9 20 17 27 17 8 0 20 14 26 31 10 25 9 30 -1 26 -8 -3 -18 5 -25
19 -6 15 -7 24 -1 24 6 0 10 -6 10 -14 0 -9 7 -12 19 -9 14 4 20 16 23 49 4
54 -14 59 -62 14z"/>
<path d="M2331 2187 c2 -1 13 -9 24 -17 19 -14 19 -14 6 3 -7 9 -18 17 -24 17
-6 0 -8 -1 -6 -3z"/>
<path d="M2065 2160 c-3 -5 1 -10 10 -10 9 0 13 5 10 10 -3 6 -8 10 -10 10 -2
0 -7 -4 -10 -10z"/>
<path d="M1909 2148 c-8 -7 -21 -21 -28 -30 -11 -14 -9 -16 13 -14 15 2 26 -1
26 -6 0 -12 -31 -61 -48 -75 -10 -9 -11 -16 -2 -32 9 -17 8 -22 -4 -27 -8 -3
-12 -12 -9 -21 5 -13 3 -13 -18 -1 -13 7 -26 14 -29 16 -2 2 2 8 10 13 12 8
11 9 -5 7 -14 -2 -21 3 -23 20 -2 12 1 22 7 22 6 0 11 5 11 10 0 7 -6 7 -19 0
-11 -5 -27 -7 -35 -4 -54 21 -146 -68 -146 -141 0 -31 -16 -65 -31 -65 -6 0
-23 -10 -38 -23 l-28 -23 24 -17 c13 -10 23 -26 23 -35 0 -27 33 -50 66 -45
24 4 32 -1 48 -27 12 -22 15 -34 8 -39 -7 -4 -3 -17 12 -36 18 -23 27 -27 37
-19 23 18 58 24 52 9 -5 -15 26 -35 55 -35 21 0 56 -33 45 -43 -15 -16 20 -5
55 16 26 17 47 23 73 19 36 -4 36 -4 31 30 -2 18 -9 38 -13 44 -14 17 5 59 27
59 25 0 29 29 9 71 -9 19 -18 53 -20 75 -4 37 -2 39 26 39 21 0 29 -5 30 -17
0 -17 1 -17 8 0 5 14 9 7 18 -26 22 -80 82 -69 84 15 1 21 2 44 3 51 0 6 -7
20 -16 30 -24 23 -23 58 2 105 18 34 34 122 23 122 -19 0 -63 -35 -78 -63 -11
-21 -24 -33 -32 -30 -14 6 -46 67 -46 89 0 8 -5 13 -11 11 -6 -3 -19 0 -29 5
-9 5 -23 5 -30 1 -6 -4 -27 -8 -45 -9 -27 -1 -31 2 -26 18 6 21 3 22 -17 6z
m77 -173 c16 -8 38 -15 50 -15 11 0 29 -9 38 -19 17 -19 17 -20 -26 -32 -39
-12 -59 -14 -94 -10 -15 1 -23 42 -13 69 10 26 9 26 45 7z m-42 -84 c3 -5 0
-13 -7 -18 -21 -17 -46 -22 -53 -12 -3 6 3 13 15 16 12 3 21 9 21 14 0 12 17
12 24 0z m-133 -71 c10 -6 19 -15 19 -21 0 -15 -23 -35 -37 -33 -7 1 -17 2
-23 3 -14 1 -13 34 2 49 15 15 15 15 39 2z m93 -160 c18 -6 26 -17 26 -33 0
-23 -16 -47 -32 -47 -16 0 -40 49 -33 70 7 23 6 23 39 10z"/>
<path d="M2375 2140 c3 -5 8 -10 11 -10 2 0 4 5 4 10 0 6 -5 10 -11 10 -5 0
-7 -4 -4 -10z"/>
<path d="M1183 2052 c-27 -4 -28 -10 -7 -61 12 -31 21 -40 47 -44 39 -6 61 16
52 52 -10 39 -47 60 -92 53z"/>
<path d="M2455 2020 c3 -5 16 -15 28 -21 22 -12 22 -12 3 10 -19 21 -43 30
-31 11z"/>
<path d="M2566 1987 c2 -7 14 -19 27 -26 21 -13 21 -12 -2 13 -27 29 -33 32
-25 13z"/>
<path d="M2776 1881 c-2 -3 7 -11 20 -18 19 -9 24 -8 24 2 0 14 -37 28 -44 16z"/>
<path d="M2230 1856 c0 -9 5 -16 10 -16 6 0 10 4 10 9 0 6 -4 13 -10 16 -5 3
-10 -1 -10 -9z"/>
<path d="M7195 1860 c3 -5 10 -10 16 -10 5 0 9 5 9 10 0 6 -7 10 -16 10 -8 0
-12 -4 -9 -10z"/>
<path d="M2830 1845 c0 -8 2 -15 4 -15 2 0 6 7 10 15 3 8 1 15 -4 15 -6 0 -10
-7 -10 -15z"/>
<path d="M2877 1839 c-20 -12 -13 -31 8 -22 8 3 15 -1 15 -8 0 -7 2 -10 5 -7
3 3 2 14 -2 26 -6 16 -12 19 -26 11z"/>
<path d="M764 1723 c16 -4 15 -7 -10 -24 -25 -16 -26 -19 -9 -19 11 0 31 7 44
16 18 13 20 18 10 25 -8 5 -23 8 -34 8 -18 -1 -19 -2 -1 -6z"/>
<path d="M2775 1619 c-4 -6 -5 -12 -2 -15 2 -3 7 2 10 11 7 17 1 20 -8 4z"/>
<path d="M788 1483 c-19 -5 -25 -23 -8 -23 6 0 10 -12 10 -26 0 -14 9 -37 20
-51 24 -31 26 -51 5 -59 -14 -6 -13 -8 2 -19 16 -12 20 -10 31 10 13 26 37 24
58 -3 8 -11 15 -12 31 -4 27 15 36 41 21 59 -7 8 -13 22 -14 30 -4 26 -56 73
-93 83 -20 5 -38 9 -41 9 -3 -1 -13 -3 -22 -6z"/>
<path d="M2895 1450 c-3 -5 -1 -10 4 -10 6 0 11 5 11 10 0 6 -2 10 -4 10 -3 0
-8 -4 -11 -10z"/>
<path d="M1253 1413 c-8 -3 -13 -21 -13 -41 l1 -37 19 24 c29 34 25 65 -7 54z"/>
<path d="M2810 1404 c-9 -10 -10 -18 -2 -26 12 -12 32 -2 32 17 0 21 -16 26
-30 9z m20 -14 c0 -5 -2 -10 -4 -10 -3 0 -8 5 -11 10 -3 6 -1 10 4 10 6 0 11
-4 11 -10z"/>
<path d="M630 1381 c0 -25 -36 -51 -71 -51 -14 0 -38 9 -52 20 -25 20 -77 28
-77 11 0 -15 48 -41 75 -41 15 0 24 -4 20 -10 -3 -5 -1 -10 4 -10 6 0 11 5 11
12 0 7 5 6 13 -4 6 -8 35 -28 62 -43 28 -16 56 -37 63 -47 7 -10 20 -18 28
-18 8 0 14 -4 14 -9 0 -16 28 -20 64 -10 47 13 48 41 4 57 -18 6 -43 9 -55 6
-15 -4 -28 2 -44 20 -25 28 -38 86 -20 86 17 0 13 21 -6 36 -25 19 -33 17 -33
-5z"/>
<path d="M2877 1394 c-3 -3 -3 -13 0 -21 5 -12 7 -12 14 -1 15 23 4 40 -14 22z"/>
<path d="M7490 1390 c0 -6 7 -10 15 -10 8 0 15 2 15 4 0 2 -7 6 -15 10 -8 3
-15 1 -15 -4z"/>
<path d="M2792 1340 c0 -14 2 -19 5 -12 2 6 2 18 0 25 -3 6 -5 1 -5 -13z"/>
<path d="M1123 1338 c-7 -13 18 -29 35 -23 8 3 23 5 35 5 21 1 21 1 4 11 -26
15 -66 18 -74 7z"/>
<path d="M750 1325 c7 -8 20 -15 29 -15 13 1 13 3 -3 15 -26 19 -42 19 -26 0z"/>
<path d="M2098 1285 c4 -30 22 -60 22 -38 0 6 3 18 6 27 4 10 1 16 -9 16 -9 0
-17 6 -20 13 -2 6 -2 -1 1 -18z"/>
<path d="M2960 1270 c0 -5 5 -10 11 -10 5 0 7 5 4 10 -3 6 -8 10 -11 10 -2 0
-4 -4 -4 -10z"/>
<path d="M7115 1270 c-3 -5 -1 -10 4 -10 6 0 11 5 11 10 0 6 -2 10 -4 10 -3 0
-8 -4 -11 -10z"/>
<path d="M1306 1147 c3 -10 9 -15 12 -12 3 3 0 11 -7 18 -10 9 -11 8 -5 -6z"/>
<path d="M637 1143 c-16 -4 -16 -6 3 -33 30 -42 26 -64 -15 -80 -19 -8 -35
-19 -35 -25 0 -7 -13 -23 -29 -37 -16 -14 -37 -48 -47 -74 -9 -27 -22 -55 -28
-63 -16 -21 31 -4 69 24 17 13 69 41 115 63 47 22 93 48 102 59 9 10 29 31 44
48 l27 29 -53 48 c-38 34 -57 45 -65 38 -9 -7 -21 -7 -39 0 -15 5 -28 9 -29 9
-1 -1 -10 -3 -20 -6z"/>
<path d="M60 1070 c0 -5 5 -10 11 -10 5 0 7 5 4 10 -3 6 -8 10 -11 10 -2 0 -4
-4 -4 -10z"/>
<path d="M2675 1030 c-3 -5 -1 -10 4 -10 6 0 11 5 11 10 0 6 -2 10 -4 10 -3 0
-8 -4 -11 -10z"/>
<path d="M1710 880 c0 -6 7 -10 15 -10 8 0 15 2 15 4 0 2 -7 6 -15 10 -8 3
-15 1 -15 -4z"/>
<path d="M0 764 l0 -46 26 31 c29 34 26 61 -6 61 -17 0 -20 -6 -20 -46z"/>
<path d="M576 781 c-4 -7 -5 -15 -2 -18 9 -9 19 4 14 18 -4 11 -6 11 -12 0z"/>
<path d="M362 754 c-14 -9 -53 -18 -95 -21 -40 -3 -74 -9 -77 -14 -3 -4 -19
-13 -35 -19 l-30 -11 33 -16 c17 -8 32 -19 32 -24 0 -5 6 -9 14 -9 14 0 28
-34 18 -44 -3 -3 -15 -6 -27 -6 -47 0 -49 -43 -2 -78 24 -19 23 -72 -2 -72
-11 0 -21 4 -23 9 -2 5 -21 6 -44 2 -50 -10 -74 2 -74 34 0 16 -6 25 -16 25
-8 0 -12 -5 -9 -10 3 -6 -1 -13 -9 -16 -12 -4 -16 -20 -16 -55 0 -44 3 -49 25
-55 14 -3 35 -4 46 -1 24 6 56 -17 39 -28 -16 -10 8 -35 34 -35 11 0 35 9 52
19 18 11 42 21 55 23 14 2 29 14 37 31 7 15 17 27 23 27 5 0 9 7 9 15 0 10
-10 15 -32 15 -39 0 -53 8 -62 35 -5 17 2 23 43 38 27 9 57 17 68 17 11 0 28
7 39 15 19 14 19 14 -3 30 -12 8 -27 32 -34 52 -11 35 -10 38 18 64 19 17 31
36 31 53 0 14 -1 26 -2 26 -1 0 -12 -7 -24 -16z"/>
<path d="M57 670 c7 -25 15 -25 44 0 l24 19 -37 1 c-31 0 -35 -3 -31 -20z"/>
<path d="M540 650 c0 -5 -18 -10 -40 -10 -28 0 -40 -4 -40 -14 0 -8 18 -29 40
-46 22 -17 40 -27 40 -21 0 5 12 9 28 8 26 -2 27 0 23 38 -1 22 -5 43 -8 48
-6 11 -43 9 -43 -3z"/>
<path d="M0 615 l0 -35 25 16 c30 19 29 18 9 38 -24 25 -34 19 -34 -19z"/>
<path d="M657 595 c-5 -11 0 -15 16 -15 12 0 18 4 12 8 -5 4 -13 11 -16 15 -4
4 -9 1 -12 -8z"/>
<path d="M115 500 c-3 -5 3 -10 15 -10 12 0 18 5 15 10 -3 6 -10 10 -15 10 -5
0 -12 -4 -15 -10z"/>
<path d="M519 474 c-12 -14 -11 -16 5 -13 11 2 21 10 24 17 5 17 -13 15 -29
-4z"/>
<path d="M420 471 c0 -6 9 -9 19 -8 11 0 17 5 15 9 -7 11 -34 10 -34 -1z"/>
<path d="M707 450 c-3 -13 0 -20 9 -20 15 0 19 26 5 34 -5 3 -11 -3 -14 -14z"/>
<path d="M375 405 c-23 -10 -26 -14 -10 -14 31 -1 65 10 59 20 -7 12 -13 11
-49 -6z"/>
</g>
</svg>
